<svg width="18" height="14" viewBox="0 0 18 14" fill="none" xmlns="http://www.w3.org/2000/svg">
<path d="M1.53422 13.7231C1.10476 13.7231 0.741683 13.5748 0.445 13.2781C0.148333 12.9814 0 12.6182 0 12.1884V1.53467C0 1.10491 0.148333 0.741691 0.445 0.445024C0.741683 0.148341 1.10476 0 1.53422 0H16.1581C16.5875 0 16.9506 0.148341 17.2473 0.445024C17.544 0.741691 17.6923 1.10491 17.6923 1.53467V12.1884C17.6923 12.6182 17.544 12.9814 17.2473 13.2781C16.9506 13.5748 16.5875 13.7231 16.1581 13.7231H1.53422ZM8.84615 6.91347L0.923075 1.7308V12.1846C0.923075 12.3641 0.980767 12.5115 1.09615 12.6269C1.21153 12.7423 1.35897 12.8 1.53845 12.8H16.1539C16.3333 12.8 16.4808 12.7423 16.5962 12.6269C16.7115 12.5115 16.7692 12.3641 16.7692 12.1846V1.7308L8.84615 6.91347ZM8.84615 5.87692L16.4461 0.923099H1.24615L8.84615 5.87692ZM0.923075 1.7308V0.923099V12.1846C0.923075 12.3641 0.980767 12.5115 1.09615 12.6269C1.21153 12.7423 1.35897 12.8 1.53845 12.8H0.923075V1.7308Z" fill="#AA6021"/>
</svg>
