<svg width="14" height="18" viewBox="0 0 14 18" fill="none" xmlns="http://www.w3.org/2000/svg">
<path id="Vector" d="M6.94747 8.53078C7.38122 8.53078 7.75242 8.37634 8.06108 8.06745C8.36973 7.75857 8.52405 7.38725 8.52405 6.9535C8.52405 6.51977 8.36894 6.14857 8.05873 5.8399C7.74853 5.53125 7.37561 5.37693 6.93998 5.37693C6.50436 5.37693 6.13382 5.53203 5.82837 5.84225C5.52292 6.15247 5.3702 6.52538 5.3702 6.961C5.3702 7.39662 5.52464 7.76715 5.83353 8.0726C6.14241 8.37805 6.51372 8.53078 6.94747 8.53078ZM6.94233 16.4741C8.79644 14.8392 10.2632 13.1834 11.3425 11.5066C12.4219 9.82975 12.9615 8.38014 12.9615 7.1577C12.9615 5.3468 12.3911 3.85177 11.2501 2.6726C10.1091 1.49343 8.6726 0.90385 6.9405 0.90385C5.20838 0.90385 3.77245 1.49343 2.6327 2.6726C1.49297 3.85177 0.9231 5.3468 0.9231 7.1577C0.9231 8.38014 1.46277 9.82975 2.54212 11.5066C3.62147 13.1834 5.08821 14.8392 6.94233 16.4741ZM6.94233 17.7087C4.63527 15.6426 2.90146 13.729 1.74087 11.9678C0.580291 10.2066 0 8.60478 0 7.16238C0 5.09493 0.673883 3.38433 2.02165 2.0306C3.3694 0.676867 5.00962 0 6.94233 0C8.87502 0 10.5153 0.676867 11.863 2.0306C13.2108 3.38433 13.8847 5.09493 13.8847 7.16238C13.8847 8.60478 13.3044 10.2066 12.1438 11.9678C10.9832 13.729 9.24938 15.6426 6.94233 17.7087Z" fill="#AA6021"/>
</svg>
