<svg width="16" height="16" viewBox="0 0 16 16" fill="none" xmlns="http://www.w3.org/2000/svg">
<path d="M14.6385 15.6923C13.0038 15.6923 11.3192 15.2758 9.5846 14.4428C7.84998 13.6098 6.23588 12.4407 4.7423 10.9356C3.24038 9.43878 2.07452 7.82628 1.2447 6.09808C0.4149 4.36988 0 2.68686 0 1.04902C0 0.752325 0.0985331 0.503308 0.2956 0.301975C0.492666 0.100658 0.739 0 1.0346 0H3.4C3.6718 0 3.90593 0.080925 4.1024 0.242775C4.29888 0.404642 4.43398 0.623717 4.5077 0.9L5.00385 3.22308C5.05 3.47371 5.03941 3.70226 4.97207 3.90873C4.90474 4.11519 4.79529 4.28569 4.64373 4.42023L2.4952 6.43845C2.90737 7.18333 3.35854 7.87426 3.84872 8.51123C4.33891 9.14819 4.86081 9.74541 5.41442 10.3029C5.98494 10.8798 6.60112 11.4164 7.26297 11.9125C7.92484 12.4087 8.65897 12.8827 9.46537 13.3346L11.6201 11.1577C11.774 10.9904 11.9372 10.8824 12.1096 10.8337C12.2821 10.7849 12.4853 10.7763 12.7192 10.8077L14.7743 11.2219C15.0478 11.281 15.2692 11.4154 15.4385 11.625C15.6077 11.8346 15.6923 12.075 15.6923 12.3462V14.6577C15.6923 14.9533 15.5919 15.1996 15.3912 15.3967C15.1905 15.5938 14.9396 15.6923 14.6385 15.6923ZM2.05673 5.57693L3.97595 3.81153C4.03365 3.76024 4.07212 3.68973 4.09135 3.6C4.11057 3.51025 4.11057 3.42692 4.09135 3.35L3.6346 1.23078C3.60897 1.12821 3.5641 1.05128 3.5 1C3.4359 0.948717 3.35257 0.923076 3.25 0.923076H1.21057C1.12724 0.923076 1.06153 0.948717 1.01345 1C0.965383 1.05128 0.94135 1.11538 0.94135 1.1923C0.950316 1.86538 1.0532 2.57628 1.25 3.325C1.4468 4.07372 1.71571 4.82436 2.05673 5.57693ZM10.3529 13.7577C11.0138 14.0923 11.7277 14.3397 12.4945 14.5C13.2614 14.6603 13.9299 14.7462 14.5 14.7577C14.5769 14.7577 14.641 14.7321 14.6923 14.6808C14.7436 14.6295 14.7692 14.5654 14.7692 14.4885V12.4808C14.7692 12.3782 14.7436 12.2949 14.6923 12.2308C14.641 12.1667 14.5641 12.1218 14.4615 12.0962L12.6423 11.7048C12.5654 11.6856 12.4981 11.6856 12.4404 11.7048C12.3827 11.724 12.3218 11.7625 12.2577 11.8202L10.3529 13.7577Z" fill="#AA6021"/>
</svg>
