<svg xmlns="http://www.w3.org/2000/svg" height="24" viewBox="0 -960 960 960" width="24"><path d="M209.385-351.846q-14.308-29.538-21.847-61.462Q180-445.231 180-478q0-125.539 87.615-213.769Q355.231-780 480-780h55.461l-84-84 28.308-28.308L612.077-760 479.769-627.692 451.461-656l84-84H480q-108.461 0-184.231 76.269Q220-587.461 220-478q0 23.692 4.846 48.308 4.846 24.615 14.539 47.846l-30 30ZM480.231-67.692 347.923-200l132.308-132.308L508.539-304l-84 84H480q108.461 0 184.231-76.269Q740-372.539 740-482q0-23.692-4.846-48.308-4.846-24.615-14.539-47.846l30-30q14.308 29.538 21.847 61.462Q780-514.769 780-482q0 125.539-87.615 213.769Q604.769-180 480-180h-55.461l84 84-28.308 28.308Z"/></svg>