<svg xmlns="http://www.w3.org/2000/svg" xmlns:xlink="http://www.w3.org/1999/xlink" width="82" height="80" viewBox="0 0 82 80"><defs><clipPath id="a"><rect width="80" height="68.596" fill="#399a00"/></clipPath></defs><g transform="translate(-1000 -1320)"><g transform="translate(1002 1321.404)"><g clip-path="url(#a)"><path d="M77.182,40.064c-.207-.167-2.417-1.427-5.142-3.028a12.989,12.989,0,0,0,.377-2.9c0-2.52-.9-4.463-2.481-5.453-.263-.241,2.55,1.468-48.243-28.071-1.713-.97-3.917-.781-6.213.538C11.072,3.713,7.5,9.9,7.516,14.941a6.6,6.6,0,0,0,1.879,5.022,9.613,9.613,0,0,0-1.431.668C3.554,23.2-.018,29.39,0,34.442c.018,2.637.954,4.62,2.63,5.581.243.142,47.9,27.845,48.075,27.945,1.948,1.13,4.277.6,6.247-.528a15.714,15.714,0,0,0,6.735-8.629l2.074,1.2c1.938,1.166,4.3.647,6.271-.5C76.425,56.978,80,50.785,80,45.7V45.7c-.018-2.633-1.011-4.644-2.819-5.632Zm-6.542.912c.366-.735.847-1.966.951-2.272l1.775,1.035a9.682,9.682,0,0,0-2.726,1.237Zm-6.633,8.872a6.358,6.358,0,0,0-.954-1.216,11.2,11.2,0,0,0,1.86-.949C64.582,48.358,64.157,49.421,64.007,49.848ZM70.75,34.135a15.962,15.962,0,0,1-7.116,12.378c-3.157,1.818-5.416,1.188-6.3-2.626-1.016-4.7,4.036-13.031,9.059-14.143,2.961-.7,4.361,1.724,4.361,4.391ZM16.316,2.591c1.759-1.01,3.379-1.2,4.549-.535L65.8,28.167a10.369,10.369,0,0,0-3.857,2.051,18.39,18.39,0,0,0-4.993,6.719,13.712,13.712,0,0,0-1.266,7.231c0,.02,0,.041,0,.061L14.184,20.112a5.14,5.14,0,0,0-2.488-.619l-.713-.416c-1.146-.656-1.784-2.129-1.8-4.146A15.775,15.775,0,0,1,16.318,2.59ZM3.465,38.578c-1.145-.657-1.783-2.131-1.8-4.147A15.786,15.786,0,0,1,8.8,22.073c1.381-.8,3.162-1.315,4.549-.519L56.45,46.6a5.931,5.931,0,0,0,1,1.312,12.015,12.015,0,0,0-4.224,2.9c-4.257,4.308-5.825,10.347-4.86,13.866ZM56.12,66c-3.238,1.856-5.625.842-6.218-2.1-.642-3.026.864-8.192,4.47-11.87,4-4.086,8.632-3.981,8.846,1.222,0,.011,0,.019,0,.029h0C62.7,59.036,60.109,63.672,56.12,66ZM71.2,58.065c-2.266,1.319-4.786,1.416-5.835-.951a7.009,7.009,0,0,1-.462-3.64,16.234,16.234,0,0,1,5.653-10.388c1.262-1.008,3.217-2.085,4.76-1.89h.007c2.227.282,3,2.343,3.014,4.506A15.775,15.775,0,0,1,71.2,58.065Z" transform="translate(0 0)" fill="#399a00"/><path d="M338.531,212.709c-3.52,0-8.653,5.886-8.631,11.45,0,3.505,2.192,4.521,5.044,2.866a13.847,13.847,0,0,0,6.16-10.7c0-2.267-.963-3.619-2.573-3.619Zm-1.609,2.208c2.964-1.787,2.948,1.566,1.921,4.465l-4.233-2.46a9.372,9.372,0,0,1,2.312-2.005m-2.813,10.665c-1.953,1.133-2.542.473-2.542-1.426a11.329,11.329,0,0,1,2.034-5.892l4.576,2.659a11.4,11.4,0,0,1-4.068,4.659Z" transform="translate(-263.921 -170.167)" fill="#399a00"/><path d="M258.794,254.515c-3.183,2.978-4.788,7.7-4.2,10.517.455,2.621,2.624,2.96,4.923,1.628a14.114,14.114,0,0,0,5.858-8.322c1.487-6.1-2.4-7.862-6.579-3.823m4.96,3.433a10.662,10.662,0,0,1-.317,1.075l-4.28-2.482a11.139,11.139,0,0,1,.786-.818c3.276-3.168,4.77-1.708,3.81,2.225Zm-5.074,7.271c-1.229.71-2.208.9-2.449-.5-.447-2.138.708-4.987,1.915-6.841l4.622,2.68a11.367,11.367,0,0,1-4.088,4.658Z" transform="translate(-203.579 -201.872)" fill="#399a00"/><path d="M299.689,154.893a7.192,7.192,0,0,0-2.767,1.486c-3.314,2.709-5.524,7.834-4.81,11.053.395,2.286,2.218,3.189,4.924,1.629a13.514,13.514,0,0,0,5.092-6.081,11.061,11.061,0,0,0,1.071-4.606C303.2,155.215,301.3,154.281,299.689,154.893Zm1.843,3.481a8.148,8.148,0,0,1-.533,2.884c-.019.057-.044.112-.064.169l-4.246-2.462a9.845,9.845,0,0,1,1.287-1.3C300.022,156,301.532,155.71,301.532,158.375Zm-7.786,8.738c-.445-2.064.759-5,1.941-6.8l4.569,2.649a11.157,11.157,0,0,1-4.058,4.658C294.895,168.372,293.99,168.514,293.746,167.112Z" transform="translate(-233.582 -123.773)" fill="#399a00"/></g></g><circle cx="40" cy="40" r="40" transform="translate(1000 1320)" fill="rgba(57,154,0,0.08)"/></g></svg>