<svg xmlns="http://www.w3.org/2000/svg" xmlns:xlink="http://www.w3.org/1999/xlink" width="80" height="85" viewBox="0 0 80 85"><defs><clipPath id="a"><rect width="60.417" height="70" fill="#399a00"/></clipPath></defs><g transform="translate(-1000 -1435)"><g transform="translate(1016.952 1435)"><g clip-path="url(#a)"><path d="M57.062,24.1c-2.073-2.156-4.526-3.495-6.4-3.495a2.779,2.779,0,0,0-1.972.707l-.1.1-5.725,5.95V8.709c0-1.73-1.1-4.222-6.329-6.271A43.475,43.475,0,0,0,21.433,0a43.475,43.475,0,0,0-15.1,2.438C1.1,4.487,0,6.98,0,8.709V61.295c0,1.728,1.1,4.22,6.329,6.269A43.509,43.509,0,0,0,21.433,70a43.534,43.534,0,0,0,15.1-2.435c5.231-2.05,6.329-4.542,6.329-6.27V54.141A9.6,9.6,0,0,1,45.5,47.533L59.663,32.81c1.641-1.719.524-5.458-2.6-8.706M21.433,1.525c10.79,0,19.906,3.289,19.906,7.182s-9.116,7.179-19.906,7.179S1.527,12.6,1.527,8.708s9.116-7.182,19.906-7.182M41.339,12.367V28.889l-5.3,5.4V15.177l.765-.309.259-.108c.193-.082.4-.172.622-.275l.1-.044.116-.053c.285-.136.538-.263.773-.391l.109-.061c.21-.116.41-.232.6-.347l.085-.049.009-.005ZM44.4,46.472a10.993,10.993,0,0,0-3.057,7.667v7.154c0,1.509-1.362,2.969-3.937,4.222l-1.762.858V61.747a.763.763,0,0,0-1.527,0V66.8l-.9.245c-.934.255-1.924.479-2.943.667l-1.448.267v-20.5a.763.763,0,1,0-1.527,0V68.16l-1.115.1c-1,.09-2.028.151-3.063.183l-1.264.038V51.918a.763.763,0,1,0-1.527,0V68.475l-1.279-.056c-1-.044-2-.117-2.966-.215l-1.1-.114V59.436a.763.763,0,1,0-1.527,0v8.449l-1.467-.294a33.777,33.777,0,0,1-3.327-.836L7.8,66.488V47.476a.763.763,0,0,0-1.527,0V66.049L4.419,64.957c-2.392-1.412-2.893-2.773-2.893-3.663V14.58l-.005-2.2,1.867,1.147.016.009c.026.015.052.029.084.049.184.113.386.23.6.345l.08.046.03.016c.24.129.5.26.774.391l.116.053.184.085c.087.041.176.082.265.121l.736.321V28A.763.763,0,0,0,7.8,28V15.539l1.542.412c.2.053.4.106.607.157.106.026.212.053.323.079q.4.1.824.187l.247.053c.364.076.734.149,1.094.212l.192.033c.309.054.622.106.932.154l.358.053c.27.04.539.076.814.112l.362.046c.327.038.651.075.966.106l.2.022c.38.037.776.071,1.178.1l.169.011.142.01c.294.02.59.038.883.053.132.007.264.014.4.019q.423.018.85.03l.1,0,.267.007c.443.009.832.015,1.2.015s.753-.005,1.2-.015l.267-.007.1,0q.425-.012.85-.03l.4-.019q.443-.022.881-.053l.144-.01c.056,0,.112-.007.17-.012.147-.009.293-.023.439-.035l1.419-.121v22a.763.763,0,1,0,1.527,0v-22.2l1.024-.172c.135-.022.267-.044.4-.067l.188-.033c.354-.063.714-.133,1.1-.212l.252-.054c.277-.06.552-.123.817-.185l.323-.079.09-.022,1.5-.35V35.991l-.01.079a.8.8,0,0,0,.056.413.782.782,0,0,0,.718.467.762.762,0,0,0,.616-.311l.05-.068,6.5-6.623.1-.067a.879.879,0,0,0,.116-.093L47.742,24.5l.733,1.686c.071.163.154.339.257.542a.729.729,0,0,0,.034.065l.04.075c.079.151.165.306.256.462.034.058.068.117.1.178.1.174.218.353.334.523l.045.069.008.014c.128.188.272.386.439.6l.753.971-7.573,7.622a.764.764,0,1,0,1.084,1.076l7.55-7.6.858.677.083.064c.091.072.183.142.281.215l.184.136q.149.106.294.2l.082.056c.03.022.061.042.09.061.127.083.253.162.379.238l.094.057c.144.086.294.169.448.251l.067.033.065.033c.106.053.211.106.316.155.022.009.044.02.071.034l1.557.715ZM58.8,31.755c-1.114,1.08-4.075-.17-6.612-2.789s-3.689-5.619-2.575-6.7,4.075.169,6.612,2.789,3.689,5.619,2.575,6.7" transform="translate(0 0)" fill="#399a00"/><path d="M195.7,249.113a.764.764,0,0,1-.763-.763v-3.765a10.794,10.794,0,0,1,3.149-7.647l1.928-1.94a.763.763,0,0,1,1.082,1.077l-1.927,1.939a9.276,9.276,0,0,0-2.706,6.571v3.765a.764.764,0,0,1-.763.763" transform="translate(-160.826 -193.688)" fill="#399a00"/><path d="M116.907,136.639a.764.764,0,0,1-.763-.763v-7.215a.763.763,0,1,1,1.527,0v7.215a.764.764,0,0,1-.763.763" transform="translate(-95.819 -105.516)" fill="#399a00"/><path d="M36.58,199.87a.764.764,0,0,1-.763-.763v-7.317a.763.763,0,1,1,1.527,0v7.317a.764.764,0,0,1-.763.763" transform="translate(-29.549 -157.596)" fill="#399a00"/><path d="M77.639,259.931a.764.764,0,0,1-.763-.763v-9.043a.763.763,0,1,1,1.526,0v9.044a.764.764,0,0,1-.763.763" transform="translate(-63.423 -205.723)" fill="#399a00"/><path d="M116.907,216.568a.764.764,0,0,1-.763-.763v-8.342a.763.763,0,1,1,1.527,0V215.8a.764.764,0,0,1-.763.763" transform="translate(-95.819 -170.527)" fill="#399a00"/><path d="M77.639,134.094a.764.764,0,0,1-.763-.763V118.513a.763.763,0,1,1,1.526,0v14.817a.764.764,0,0,1-.763.763" transform="translate(-63.423 -97.144)" fill="#399a00"/><path d="M95.669,40.051c-3.28,0-6.81-.844-6.81-2.7a.744.744,0,0,1,1.487-.016c.15.357,1.921,1.227,5.323,1.227,3.349,0,5.116-.843,5.315-1.21-.145-.249-1.271-.938-3.861-1.152a.744.744,0,1,1,.123-1.482c4.857.4,5.234,2.118,5.234,2.634,0,1.854-3.53,2.7-6.81,2.7m5.326-2.674h0Z" transform="translate(-73.309 -28.64)" fill="#399a00"/><path d="M49.959,29.947c-7.309,0-15.076-1.85-15.076-5.279s7.768-5.279,15.076-5.279c5.384,0,10.357.948,12.977,2.475a.744.744,0,1,1-.749,1.285c-2.406-1.4-7.092-2.272-12.228-2.272-8.419,0-13.589,2.208-13.589,3.792s5.17,3.792,13.589,3.792a.744.744,0,0,1,0,1.488" transform="translate(-28.778 -15.996)" fill="#399a00"/></g></g><circle cx="40" cy="40" r="40" transform="translate(1000 1440)" fill="rgba(57,154,0,0.08)"/></g></svg>