<?xml version="1.0" encoding="utf-8"?>
<!-- Generator: $$$/GeneralStr/196=Adobe Illustrator 27.6.0, SVG Export Plug-In . SVG Version: 6.00 Build 0)  -->
<svg version="1.1" id="Livello_1" xmlns="http://www.w3.org/2000/svg" xmlns:xlink="http://www.w3.org/1999/xlink" x="0px" y="0px"
	 viewBox="0 0 252.7 79.3" style="enable-background:new 0 0 252.7 79.3;" xml:space="preserve">
<style type="text/css">
	.st0{fill:#7B7C7F;}
	.st1{fill:#06644A;}
	.st2{fill:#59AC31;}
	.st3{fill:#19A345;}
	.st4{fill:#020203;}
</style>
<g>
	<path class="st0" d="M240.8,26c-7.4,0-13.4,5.7-14.5,13.7c-1.2,8,3,13.7,10.5,13.7c7.5,0,13.4-5.7,14.5-13.7
		C252.5,31.7,248.3,26,240.8,26 M239.9,32.5c3.5,0,5.1,3.7,4.6,7.2c-0.5,3.5-3.2,7.2-6.7,7.2c-3.5,0-5.1-3.7-4.6-7.2
		C233.7,36.2,236.4,32.5,239.9,32.5"/>
	<path class="st0" d="M124.8,26c-7.4,0-13.4,5.7-14.5,13.7c-1.2,8,3,13.7,10.5,13.7c7.5,0,13.4-5.7,14.5-13.7
		C136.5,31.7,132.2,26,124.8,26 M123.9,32.5c3.5,0,5.1,3.7,4.6,7.2c-0.5,3.5-3.2,7.2-6.7,7.2c-3.5,0-5.1-3.7-4.6-7.2
		C117.7,36.2,120.4,32.5,123.9,32.5"/>
	<path class="st0" d="M145.9,26.9h-6.8l-3.8,25.7h6.8L144,40c0.4-2.7,1-8.1,4.8-8.1c3.5,0,2.5,5.1,2.1,7.6l-1.9,13h6.8l1.9-12.6
		c0.4-2.7,1.1-8.1,4.8-8.1c3.3,0,2.5,4.7,2.2,7.2l-2,13.5h6.8l2.4-16c0.8-5.6,0-10.5-6-10.5c-2.8,0-5.7,1.5-7.5,4
		c-1.2-2.7-3.3-4-6.3-4c-2.2,0-4.7,1.1-6.3,3.1h-0.1L145.9,26.9z"/>
	<path class="st0" d="M205,40.9l0.1-0.9c1.1-7.7-1.4-14-9.3-14c-7.7,0-12.5,6.1-13.6,13.9c-1.1,7.8,2.5,13.5,9.9,13.5
		c5,0,9.6-2.9,12-8l-6.1-1.1c-1.2,2-2.8,3.5-5.1,3.5c-3.5,0-4.2-3.7-3.7-6.9H205z M190.2,36.4c0.7-2.7,2.6-5.2,5.3-5.2
		c2.6,0,3.8,2.6,3.8,5.2H190.2z"/>
	<path class="st0" d="M226.6,27.7c-1.5-1.1-3.4-1.6-5.3-1.6c-7.2,0-13.3,6.1-14.4,13.8c-1.1,7.4,3,13.6,10,13.6
		c2.1,0,4.1-0.5,6.1-1.6l1-7.1c-1.4,1.5-3.3,2.5-5.1,2.5c-3.9,0-5.8-3.4-5.2-7.4c0.6-3.8,3.3-7.6,7.1-7.6c2.1,0,3.4,0.9,4.6,2.5
		L226.6,27.7z"/>
	<path class="st0" d="M110.1,27.7c-1.5-1.1-3.4-1.6-5.3-1.6c-7.2,0-13.3,6.1-14.4,13.8c-1.1,7.4,3,13.6,10,13.6
		c2.1,0,4.1-0.5,6.1-1.6l1-7.1c-1.4,1.5-3.3,2.5-5.1,2.5c-3.9,0-5.8-3.4-5.2-7.4c0.6-3.8,3.3-7.6,7.1-7.6c2.1,0,3.4,0.9,4.6,2.5
		L110.1,27.7z"/>
	<path class="st0" d="M182.2,26.9h-6.8l-3.8,25.7h6.8L182.2,26.9z M181,11.7c-2.2,0-4.3,2-4.7,4.3c-0.4,2.4,1.2,4.3,3.4,4.3
		c2.2,0,4.3-1.9,4.7-4.3C184.8,13.7,183.3,11.7,181,11.7"/>
	<path class="st1" d="M55.7,22.7c0,0-18.7-18.3-41.8-5.8c0,0,20.9-31.1,53.6-5.9l4.2-4.2l0,20.6H50.9L55.7,22.7z"/>
	<path class="st2" d="M48.5,56.3c0,0,25.2-7,25.8-33.3c0,0,16.5,33.7-21.6,49.4l1.6,5.7L36.4,67.9l10.4-18L48.5,56.3z"/>
	<path class="st3" d="M22.9,33.4c0,0-6.5,25.3,16,39c0,0-37.4-2.5-32-43.4l-5.8-1.5L19,17.1l10.4,18L22.9,33.4z"/>
	<path class="st4" d="M247,61.2c0,0.9-0.3,1.3-0.6,1.6c-0.3,0.3-0.7,0.3-0.8,0.3c-0.4,0-0.6-0.1-0.8-0.2c-0.3-0.2-0.7-0.7-0.7-1.6
		c0-0.9,0.4-1.9,1.5-1.9c0.3,0,0.6,0.1,0.9,0.3C246.8,59.9,247,60.3,247,61.2 M247.6,61.1c0-1.2-0.6-1.7-1-2c-0.4-0.2-0.8-0.2-1-0.2
		c-0.3,0-0.5,0-0.6,0.1c-0.4,0.1-0.6,0.3-0.8,0.4c-0.7,0.6-0.7,1.6-0.7,1.9c0,1.2,0.6,1.8,1.1,2.1c0.4,0.2,0.8,0.2,0.9,0.2
		c0.2,0,0.6,0,1-0.3C247.6,62.7,247.6,61.4,247.6,61.1 M242.4,57.4h-0.6v6.1h0.6V57.4z M240.8,60.4c0-0.2-0.1-0.3-0.1-0.5
		c-0.3-0.7-0.9-0.9-1.1-1c-0.2-0.1-0.4-0.1-0.5-0.1c-0.1,0-0.4,0-0.6,0.1c-0.4,0.1-0.7,0.4-0.8,0.5c-0.6,0.6-0.6,1.5-0.6,1.8
		c0,0.2,0,1.1,0.5,1.7c0.4,0.4,0.8,0.6,1.4,0.6c0.7,0,1.4-0.4,1.7-1.1c0.1-0.2,0.1-0.5,0.1-0.5l-0.5,0c0,0.1,0,0.2-0.1,0.4
		c-0.2,0.5-0.6,0.7-1.2,0.7c-0.6,0-1-0.4-1.1-0.6c-0.2-0.4-0.3-0.8-0.3-1.2c0-0.2,0-1.3,0.8-1.7c0.2-0.1,0.5-0.1,0.6-0.1
		c0.2,0,0.7,0,1,0.5c0.1,0.1,0.1,0.2,0.2,0.5H240.8z M235.9,57.3h-0.5v0.7h0.5V57.3z M235.9,59h-0.6v4.4h0.6V59z M234.3,60.4
		c0-0.2-0.1-0.3-0.1-0.5c-0.3-0.7-0.9-0.9-1.1-1c-0.2-0.1-0.4-0.1-0.5-0.1s-0.4,0-0.6,0.1c-0.4,0.1-0.7,0.4-0.8,0.5
		c-0.6,0.6-0.6,1.5-0.6,1.8c0,0.2,0,1.1,0.5,1.7c0.4,0.4,0.9,0.6,1.4,0.6c0.7,0,1.4-0.4,1.7-1.1c0.1-0.2,0.1-0.5,0.1-0.5l-0.5,0
		c0,0.1,0,0.2-0.1,0.4c-0.2,0.5-0.6,0.7-1.2,0.7c-0.6,0-1-0.4-1.1-0.6c-0.2-0.4-0.3-0.8-0.3-1.2c0-0.2,0-1.3,0.8-1.7
		c0.2-0.1,0.5-0.1,0.6-0.1c0.2,0,0.7,0,1,0.5c0.1,0.1,0.1,0.2,0.2,0.5H234.3z M229.3,57.3h-0.5v0.7h0.5V57.3z M229.3,59h-0.6v4.4
		h0.6V59z M223.6,60.2v-2.3h1.5c0.9,0,1.3,0,1.6,0.4c0.2,0.3,0.2,0.6,0.2,0.7c0,0.2-0.1,0.6-0.2,0.8c-0.2,0.3-0.6,0.4-0.7,0.4
		c-0.3,0-0.6,0-0.7,0H223.6z M223.6,63.4v-2.8h1.6c0.5,0,0.8,0,1,0.1c0.2,0.1,0.4,0.4,0.5,1c0,0.1,0,0.2,0,0.3l0,0.5
		c0,0.4,0.1,0.6,0.1,0.8c0,0,0,0,0,0.1h0.8c-0.2-0.1-0.3-0.3-0.3-0.7c0-0.1,0-0.2,0-0.3l0-0.5c0-0.4,0-0.9-0.3-1.2
		c-0.2-0.2-0.4-0.3-0.4-0.3c0.1,0,0.2-0.1,0.3-0.1c0.7-0.4,0.7-1.1,0.7-1.3c0-0.1,0-0.6-0.2-0.9c-0.4-0.6-1.1-0.6-1.3-0.7
		c-0.1,0-0.2,0-0.4,0H223v6.1H223.6z M215.5,60.9c0.1-0.5,0.3-0.9,0.4-1c0.1-0.1,0.4-0.5,1-0.5c0.6,0,1,0.3,1.2,0.8
		c0.1,0.3,0.1,0.5,0.1,0.6H215.5z M218.7,61.3c0-0.6-0.1-1.2-0.4-1.7c-0.5-0.7-1.2-0.7-1.4-0.7c-0.6,0-1,0.2-1.2,0.4
		c-0.8,0.6-0.8,1.7-0.8,2c0,0.8,0.2,1.3,0.4,1.5c0.1,0.2,0.3,0.3,0.4,0.4c0.3,0.2,0.7,0.4,1.1,0.4c1,0,1.5-0.6,1.7-0.9
		c0.1-0.2,0.2-0.5,0.3-0.6h-0.6c-0.1,0.3-0.1,0.4-0.2,0.5c-0.3,0.5-0.9,0.5-1.1,0.5c-0.1,0-0.5,0-0.8-0.2c-0.4-0.3-0.6-0.7-0.6-1.2
		c0-0.1,0-0.2,0-0.3H218.7z M210.4,61.2c0,0.9-0.3,1.3-0.6,1.6c-0.3,0.3-0.7,0.3-0.8,0.3c-0.4,0-0.6-0.1-0.8-0.2
		c-0.3-0.2-0.7-0.7-0.7-1.6c0-0.9,0.4-1.9,1.5-1.9c0.3,0,0.6,0.1,0.9,0.3C210.2,59.9,210.4,60.3,210.4,61.2 M211,61.1
		c0-1.2-0.6-1.7-1-2c-0.4-0.2-0.8-0.2-1-0.2c-0.3,0-0.5,0-0.6,0.1c-0.4,0.1-0.6,0.3-0.8,0.4c-0.7,0.6-0.7,1.6-0.7,1.9
		c0,1.2,0.6,1.8,1.1,2.1c0.4,0.2,0.8,0.2,0.9,0.2c0.2,0,0.6,0,1-0.3C211,62.7,211,61.4,211,61.1 M204.9,63.4v-2c0-0.6,0-1.3,0.5-1.7
		c0.3-0.2,0.5-0.3,0.9-0.3V59c-0.1,0-0.2,0-0.2,0c-0.6,0-0.9,0.3-1,0.5c-0.2,0.2-0.2,0.4-0.2,0.5l0-0.9h-0.5v4.4H204.9z M199.9,60.9
		c0.1-0.5,0.3-0.9,0.4-1c0.1-0.1,0.4-0.5,1-0.5c0.6,0,1,0.3,1.2,0.8c0.1,0.3,0.1,0.5,0.1,0.6H199.9z M203.1,61.3
		c0-0.6-0.1-1.2-0.4-1.7c-0.5-0.7-1.2-0.7-1.4-0.7c-0.6,0-1,0.2-1.2,0.4c-0.8,0.6-0.8,1.7-0.8,2c0,0.8,0.2,1.3,0.4,1.5
		c0.1,0.2,0.3,0.3,0.4,0.4c0.3,0.2,0.7,0.4,1.1,0.4c1,0,1.5-0.6,1.7-0.9c0.1-0.2,0.2-0.5,0.2-0.6h-0.6c-0.1,0.3-0.1,0.4-0.2,0.5
		c-0.3,0.5-0.9,0.5-1.1,0.5c-0.1,0-0.5,0-0.8-0.2c-0.4-0.3-0.6-0.7-0.6-1.2c0-0.1,0-0.2,0-0.3H203.1z M197.9,61.3
		c0,0.1,0,1.1-0.7,1.6c-0.2,0.1-0.5,0.2-0.7,0.2c-0.4,0-0.9-0.2-1.1-0.6c-0.3-0.5-0.3-1-0.3-1.2c0-0.6,0.1-1.3,0.6-1.7
		c0.3-0.2,0.6-0.3,0.8-0.3c0.8,0,1.2,0.5,1.4,1.2C197.9,60.9,197.9,61.2,197.9,61.3 M195.1,65v-2.2c0.1,0.1,0.1,0.2,0.2,0.2
		c0.2,0.2,0.6,0.6,1.3,0.6c0.2,0,0.6,0,1.1-0.3c0.9-0.6,0.9-1.7,0.9-2c0-1.3-0.6-1.9-1.1-2.1c-0.1-0.1-0.4-0.2-0.8-0.2
		c-0.2,0-0.9,0-1.3,0.6c-0.1,0.1-0.1,0.1-0.1,0.2V59h-0.5V65H195.1z M193.1,63.4V59h-0.6v2.4c0,0.4,0,0.5-0.1,0.7
		c-0.1,0.2-0.2,0.4-0.3,0.5c-0.1,0.1-0.4,0.4-0.9,0.4c-0.1,0-0.7,0-0.9-0.5c-0.1-0.2-0.1-0.4-0.1-0.8V59h-0.6v2.7c0,0.5,0,0.8,0.1,1
		c0.3,0.8,1.2,0.8,1.4,0.8c0.7,0,1.1-0.3,1.3-0.6c0.1-0.1,0.1-0.1,0.1-0.2v0.7H193.1z M188.6,60.4c0-0.2-0.1-0.3-0.1-0.5
		c-0.3-0.7-0.9-0.9-1.1-1c-0.2-0.1-0.4-0.1-0.5-0.1c-0.1,0-0.4,0-0.6,0.1c-0.4,0.1-0.7,0.4-0.8,0.5c-0.6,0.6-0.6,1.5-0.6,1.8
		c0,0.2,0,1.1,0.5,1.7c0.4,0.4,0.9,0.6,1.4,0.6c0.7,0,1.4-0.4,1.7-1.1c0.1-0.2,0.1-0.5,0.1-0.5l-0.5,0c0,0.1,0,0.2-0.1,0.4
		c-0.2,0.5-0.6,0.7-1.1,0.7c-0.6,0-1-0.4-1.1-0.6c-0.2-0.4-0.3-0.8-0.3-1.2c0-0.2,0-1.3,0.8-1.7c0.2-0.1,0.5-0.1,0.6-0.1
		c0.2,0,0.7,0,1,0.5c0.1,0.1,0.1,0.2,0.2,0.5H188.6z M180.7,60.9c0.1-0.5,0.3-0.9,0.4-1c0.1-0.1,0.4-0.5,1-0.5c0.6,0,1,0.3,1.2,0.8
		c0.1,0.3,0.1,0.5,0.1,0.6H180.7z M184,61.3c0-0.6-0.1-1.2-0.4-1.7c-0.5-0.7-1.2-0.7-1.4-0.7c-0.6,0-1,0.2-1.2,0.4
		c-0.8,0.6-0.8,1.7-0.8,2c0,0.8,0.2,1.3,0.4,1.5c0.1,0.2,0.3,0.3,0.4,0.4c0.3,0.2,0.7,0.4,1.1,0.4c1,0,1.5-0.6,1.7-0.9
		c0.1-0.2,0.2-0.5,0.2-0.6h-0.6c-0.1,0.3-0.1,0.4-0.2,0.5c-0.3,0.5-0.9,0.5-1.1,0.5c-0.1,0-0.5,0-0.8-0.2c-0.4-0.3-0.6-0.7-0.6-1.2
		c0-0.1,0-0.2,0-0.3H184z M175.3,60.2v-2.3h1.5c0.9,0,1.3,0,1.6,0.4c0.2,0.3,0.2,0.6,0.2,0.7c0,0.2-0.1,0.6-0.2,0.8
		c-0.2,0.3-0.6,0.4-0.7,0.4c-0.3,0-0.6,0-0.7,0H175.3z M175.2,63.4v-2.8h1.6c0.5,0,0.8,0,1,0.1c0.2,0.1,0.4,0.4,0.5,1
		c0,0.1,0,0.2,0,0.3l0,0.5c0,0.4,0.1,0.6,0.1,0.8c0,0,0,0,0,0.1h0.8c-0.2-0.1-0.3-0.3-0.3-0.7c0-0.1,0-0.2,0-0.3l0-0.5
		c0-0.4,0-0.9-0.3-1.2c-0.2-0.2-0.4-0.3-0.4-0.3c0.1,0,0.2-0.1,0.3-0.1c0.7-0.4,0.7-1.1,0.7-1.3c0-0.1,0-0.6-0.2-0.9
		c-0.4-0.6-1.1-0.6-1.3-0.7c-0.1,0-0.2,0-0.4,0h-2.5v6.1H175.2z M167,60.9c0.1-0.5,0.3-0.9,0.4-1c0.1-0.1,0.4-0.5,1-0.5
		c0.6,0,1,0.3,1.2,0.8c0.1,0.3,0.1,0.5,0.1,0.6H167z M170.2,61.3c0-0.6-0.1-1.2-0.4-1.7c-0.5-0.7-1.2-0.7-1.4-0.7
		c-0.6,0-1,0.2-1.2,0.4c-0.8,0.6-0.8,1.7-0.8,2c0,0.8,0.2,1.3,0.4,1.5c0.1,0.2,0.3,0.3,0.4,0.4c0.3,0.2,0.7,0.4,1.1,0.4
		c1,0,1.5-0.6,1.7-0.9c0.1-0.2,0.2-0.5,0.3-0.6h-0.6c-0.1,0.3-0.1,0.4-0.2,0.5c-0.3,0.5-0.9,0.5-1.1,0.5c-0.1,0-0.5,0-0.8-0.2
		c-0.4-0.3-0.6-0.7-0.6-1.2c0-0.1,0-0.2,0-0.3H170.2z M165.3,57.4h-0.6v6.1h0.6V57.4z M162.7,61.1v0.4c0,0.3,0,0.4-0.1,0.7
		c-0.2,0.6-0.8,0.9-1.4,0.9c-0.1,0-0.4,0-0.7-0.2c-0.2-0.2-0.2-0.5-0.2-0.6c0-0.2,0.1-0.3,0.1-0.4c0.2-0.3,0.6-0.4,0.9-0.5
		L162.7,61.1z M161.1,60.9c-0.4,0.1-0.8,0.1-1.1,0.4c-0.2,0.2-0.3,0.6-0.3,0.9c0,0.5,0.2,1.2,1.4,1.2c0.8,0,1.3-0.3,1.5-0.6
		c0.1-0.1,0.1-0.1,0.2-0.3c0,0.1,0,0.2,0,0.3c0,0.4,0.3,0.6,0.6,0.6c0.2,0,0.3-0.1,0.4-0.1l0-0.4c-0.1,0.1-0.2,0.1-0.2,0.1
		c-0.1,0-0.2-0.1-0.2-0.1c-0.1-0.1,0-0.3,0-0.4v-2.2c0-0.3,0-0.5-0.1-0.7c-0.1-0.4-0.6-0.8-1.5-0.8c-1,0-1.5,0.4-1.7,0.9
		c0,0.1-0.1,0.3-0.1,0.6h0.6c0-0.1,0-0.2,0-0.3c0.1-0.2,0.1-0.3,0.2-0.3c0.2-0.3,0.6-0.3,0.9-0.3c0.6,0,0.9,0.2,1.1,0.5
		c0,0.1,0,0.2,0.1,0.4v0.1c0,0.2,0,0.2-0.1,0.3c-0.1,0-0.3,0.1-0.5,0.1L161.1,60.9z M158.5,63.4v-2.7c0-0.6,0-1.2-0.6-1.6
		c-0.3-0.2-0.6-0.2-0.9-0.2c-0.7,0-1.1,0.3-1.3,0.6c-0.1,0.1-0.1,0.2-0.1,0.3V59h-0.5v4.4h0.6V61c0-0.4,0-0.7,0.2-1.1
		c0.1-0.2,0.5-0.5,1.1-0.6c0.1,0,0.7,0,0.9,0.5c0.1,0.2,0.1,0.4,0.1,0.8v2.7H158.5z M153.4,61.2c0,0.9-0.3,1.3-0.6,1.6
		c-0.3,0.3-0.7,0.3-0.8,0.3c-0.4,0-0.6-0.1-0.8-0.2c-0.3-0.2-0.7-0.7-0.7-1.6c0-0.9,0.4-1.9,1.5-1.9c0.3,0,0.6,0.1,0.9,0.3
		C153.1,59.9,153.4,60.3,153.4,61.2 M154,61.1c0-1.2-0.6-1.7-1-2c-0.4-0.2-0.8-0.2-1-0.2c-0.3,0-0.5,0-0.6,0.1
		c-0.4,0.1-0.6,0.3-0.8,0.4c-0.7,0.6-0.7,1.6-0.7,1.9c0,1.2,0.6,1.8,1.1,2.1c0.4,0.2,0.8,0.2,0.9,0.2c0.2,0,0.6,0,1-0.3
		C154,62.7,154,61.4,154,61.1 M148.8,57.3h-0.5v0.7h0.5V57.3z M148.8,59h-0.6v4.4h0.6V59z M147.2,63.4v-0.5h-2.8l2.7-3.5V59h-3.2
		v0.5h2.5l-2.7,3.5v0.4H147.2z M142.2,61.1v0.4c0,0.3,0,0.4-0.1,0.7c-0.2,0.6-0.8,0.9-1.4,0.9c-0.1,0-0.4,0-0.7-0.2
		c-0.2-0.2-0.2-0.5-0.2-0.6c0-0.2,0.1-0.3,0.1-0.4c0.2-0.3,0.6-0.4,0.9-0.5L142.2,61.1z M140.6,60.9c-0.4,0.1-0.8,0.1-1.1,0.4
		c-0.2,0.2-0.3,0.6-0.3,0.9c0,0.5,0.2,1.2,1.4,1.2c0.8,0,1.3-0.3,1.5-0.6c0-0.1,0.1-0.1,0.2-0.3c0,0.1,0,0.2,0,0.3
		c0,0.4,0.3,0.6,0.6,0.6c0.2,0,0.3-0.1,0.4-0.1l0-0.4c-0.1,0.1-0.2,0.1-0.2,0.1c-0.1,0-0.2-0.1-0.2-0.1c-0.1-0.1,0-0.3,0-0.4v-2.2
		c0-0.3,0-0.5-0.1-0.7c-0.1-0.4-0.6-0.8-1.5-0.8c-1,0-1.5,0.4-1.7,0.9c0,0.1-0.1,0.3-0.1,0.6h0.6c0-0.1,0-0.2,0-0.3
		c0.1-0.2,0.1-0.3,0.2-0.3c0.2-0.3,0.6-0.3,0.9-0.3c0.6,0,0.9,0.2,1.1,0.5c0,0.1,0,0.2,0.1,0.4v0.1c0,0.2,0,0.2-0.1,0.3
		c0,0-0.3,0.1-0.5,0.1L140.6,60.9z M138.1,63.4v-6.1h-0.6v3.9c0,0.2,0,0.4,0,0.6c0,0.3,0,0.6,0,0.9c-0.1-0.2-0.2-0.4-0.3-0.5
		c-0.2-0.2-0.3-0.5-0.5-0.7l-2.7-4.1h-0.6v6.1h0.6v-3c0-0.4,0-0.9,0-1.3c0-0.4,0-0.7,0-1.1c0.1,0.2,0.3,0.4,0.4,0.7
		c0.1,0.2,0.3,0.4,0.4,0.6c0.2,0.3,0.5,0.7,0.7,1l2.1,3.1H138.1z M128.2,61.2c0,0.9-0.3,1.3-0.6,1.6c-0.3,0.3-0.7,0.3-0.8,0.3
		c-0.4,0-0.6-0.1-0.8-0.2c-0.3-0.2-0.7-0.7-0.7-1.6c0-0.9,0.4-1.9,1.5-1.9c0.3,0,0.6,0.1,0.9,0.3C128,59.9,128.2,60.3,128.2,61.2
		 M128.8,61.1c0-1.2-0.6-1.7-1-2c-0.4-0.2-0.8-0.2-1-0.2c-0.3,0-0.5,0-0.6,0.1c-0.4,0.1-0.6,0.3-0.8,0.4c-0.7,0.6-0.7,1.6-0.7,1.9
		c0,1.2,0.6,1.8,1.1,2.1c0.4,0.2,0.8,0.2,0.9,0.2c0.2,0,0.6,0,1-0.3C128.8,62.7,128.8,61.4,128.8,61.1 M123.6,57.3h-0.5v0.7h0.5
		V57.3z M123.6,59h-0.6v4.4h0.6V59z M122.1,63.4v-0.5h-2.8l2.7-3.5V59h-3.2v0.5h2.5l-2.7,3.5v0.4H122.1z M116.7,63.4v-2
		c0-0.6,0-1.3,0.5-1.7c0.3-0.2,0.5-0.3,0.9-0.3V59c-0.1,0-0.2,0-0.2,0c-0.6,0-0.9,0.3-1,0.5c-0.2,0.2-0.2,0.4-0.2,0.5l0-0.9h-0.5
		v4.4H116.7z M114.4,61.2c0,0.9-0.3,1.3-0.6,1.6c-0.3,0.3-0.7,0.3-0.9,0.3c-0.4,0-0.6-0.1-0.8-0.2c-0.3-0.2-0.7-0.7-0.7-1.6
		c0-0.9,0.4-1.9,1.5-1.9c0.3,0,0.6,0.1,0.9,0.3C114.2,59.9,114.4,60.3,114.4,61.2 M115,61.1c0-1.2-0.6-1.7-1-2
		c-0.4-0.2-0.8-0.2-1-0.2c-0.3,0-0.5,0-0.6,0.1c-0.4,0.1-0.6,0.3-0.8,0.4C111,60,111,61,111,61.3c0,1.2,0.6,1.8,1.1,2.1
		c0.4,0.2,0.8,0.2,0.9,0.2c0.2,0,0.6,0,1-0.3C115,62.7,115,61.4,115,61.1 M108.8,61.5c0.4,0.1,0.8,0.2,0.8,0.7
		c0,0.2-0.1,0.4-0.1,0.4c-0.2,0.3-0.6,0.4-0.9,0.4c-0.4,0-1-0.1-1.2-0.6c-0.1-0.1-0.1-0.3-0.1-0.4h-0.6c0,0.6,0.3,1.2,0.9,1.4
		c0.3,0.1,0.7,0.1,0.8,0.1c1.3,0,1.7-0.8,1.7-1.4c0-0.7-0.5-0.9-0.8-1c-0.1,0-0.2-0.1-0.3-0.1l-0.9-0.2c-0.4-0.1-0.6-0.2-0.7-0.3
		c-0.1-0.1-0.1-0.3-0.1-0.4c0-0.4,0.3-0.7,1-0.7c0.6,0,0.9,0.2,1,0.5c0.1,0.1,0.1,0.4,0.1,0.4h0.6c0-0.1,0-0.4-0.1-0.6
		c-0.2-0.4-0.6-0.8-1.5-0.8c-1,0-1.4,0.5-1.6,0.9c0,0.1,0,0.2,0,0.4c0,0.4,0.2,0.6,0.3,0.7c0.2,0.2,0.6,0.3,0.9,0.4L108.8,61.5z
		 M105.6,63.4v-2.7c0-0.6,0-1.2-0.6-1.6c-0.3-0.2-0.6-0.2-0.9-0.2c-0.7,0-1.1,0.3-1.3,0.6c-0.1,0.1-0.1,0.2-0.1,0.3V59h-0.5v4.4h0.6
		V61c0-0.4,0-0.7,0.2-1.1c0.1-0.2,0.5-0.5,1.1-0.6c0.1,0,0.7,0,0.9,0.5c0.1,0.2,0.1,0.4,0.1,0.8v2.7H105.6z M100.5,61.2
		c0,0.9-0.3,1.3-0.6,1.6c-0.3,0.3-0.7,0.3-0.8,0.3c-0.4,0-0.6-0.1-0.8-0.2c-0.3-0.2-0.7-0.7-0.7-1.6c0-0.9,0.4-1.9,1.5-1.9
		c0.3,0,0.6,0.1,0.9,0.3C100.3,59.9,100.5,60.3,100.5,61.2 M101.1,61.1c0-1.2-0.6-1.7-1-2c-0.4-0.2-0.8-0.2-1-0.2
		c-0.3,0-0.5,0-0.6,0.1c-0.4,0.1-0.6,0.3-0.8,0.4C97.1,60,97,61,97,61.3c0,1.2,0.6,1.8,1.1,2.1c0.4,0.2,0.8,0.2,0.9,0.2
		c0.2,0,0.6,0,1-0.3C101.1,62.7,101.1,61.4,101.1,61.1 M96.1,59.1c-0.1-0.6-0.4-0.9-0.5-1.1c-0.3-0.3-0.8-0.7-1.9-0.7
		c-1.3,0-2.2,0.7-2.6,1.9c-0.2,0.6-0.2,1-0.2,1.3c0,1.7,0.8,2.5,1.4,2.8c0.5,0.3,1,0.3,1.2,0.3c0.4,0,1.6-0.1,2.3-1.3
		c0.2-0.4,0.3-0.8,0.3-1h-0.6c-0.1,1-0.9,1.8-1.9,1.8c-0.6,0-0.9-0.2-1.1-0.3c-0.5-0.3-1-1-1-2.3c0-0.9,0.3-1.5,0.5-1.8
		c0.2-0.3,0.7-0.9,1.7-0.9c0.3,0,1.1,0,1.6,0.8c0.1,0.1,0.2,0.3,0.3,0.6L96.1,59.1z"/>
	<path class="st4" d="M225.4,70.1v0.4c0,0.3,0,0.4-0.1,0.7c-0.2,0.6-0.8,0.9-1.4,0.9c-0.1,0-0.4,0-0.7-0.2c-0.2-0.2-0.2-0.5-0.2-0.6
		c0-0.2,0.1-0.3,0.1-0.4c0.2-0.3,0.6-0.4,0.9-0.5L225.4,70.1z M223.9,69.9c-0.4,0.1-0.8,0.1-1.1,0.4c-0.2,0.2-0.3,0.6-0.3,0.9
		c0,0.5,0.2,1.2,1.4,1.2c0.8,0,1.3-0.3,1.5-0.6c0.1-0.1,0.1-0.1,0.2-0.3c0,0.1,0,0.2,0,0.3c0,0.4,0.3,0.6,0.6,0.6
		c0.2,0,0.3-0.1,0.4-0.1l0-0.4c-0.1,0.1-0.2,0.1-0.2,0.1c-0.1,0-0.2-0.1-0.2-0.1c-0.1-0.1,0-0.3,0-0.4v-2.2c0-0.3,0-0.5-0.1-0.7
		c-0.1-0.4-0.6-0.8-1.5-0.8c-1,0-1.5,0.4-1.7,0.9c0,0.1-0.1,0.3-0.1,0.6h0.6c0-0.1,0-0.2,0-0.3c0.1-0.2,0.1-0.3,0.2-0.3
		c0.2-0.3,0.6-0.3,0.9-0.3c0.6,0,0.9,0.2,1.1,0.5c0,0.1,0,0.2,0.1,0.4v0.1c0,0.2,0,0.2-0.1,0.3c-0.1,0-0.3,0.1-0.5,0.1L223.9,69.9z
		 M221.7,69.4c0-0.2-0.1-0.3-0.1-0.5c-0.3-0.7-0.9-0.9-1.1-1c-0.2-0.1-0.4-0.1-0.5-0.1c-0.1,0-0.4,0-0.6,0.1
		c-0.4,0.1-0.7,0.4-0.8,0.5c-0.6,0.6-0.6,1.5-0.6,1.8c0,0.2,0,1.1,0.5,1.7c0.4,0.4,0.8,0.6,1.4,0.6c0.7,0,1.4-0.4,1.7-1.1
		c0.1-0.2,0.1-0.5,0.1-0.5l-0.5,0c0,0.1,0,0.2-0.1,0.4c-0.2,0.5-0.6,0.7-1.2,0.7c-0.6,0-1-0.4-1.1-0.6c-0.2-0.4-0.3-0.8-0.3-1.2
		c0-0.2,0-1.3,0.8-1.7c0.2-0.1,0.5-0.1,0.6-0.1c0.2,0,0.7,0,1,0.5c0.1,0.1,0.1,0.2,0.2,0.5H221.7z M216.8,66.3h-0.5v0.7h0.5V66.3z
		 M216.8,68h-0.6v4.4h0.6V68z M213.7,70.5c0.4,0.1,0.8,0.2,0.8,0.7c0,0.2-0.1,0.4-0.1,0.4c-0.2,0.3-0.6,0.4-0.9,0.4
		c-0.4,0-1-0.1-1.2-0.6c-0.1-0.1-0.1-0.3-0.1-0.4h-0.6c0,0.6,0.3,1.2,0.9,1.4c0.3,0.1,0.7,0.1,0.8,0.1c1.3,0,1.7-0.8,1.7-1.4
		c0-0.7-0.5-0.9-0.8-1c-0.1,0-0.2-0.1-0.3-0.1l-0.9-0.2c-0.4-0.1-0.6-0.2-0.7-0.3c-0.1-0.1-0.1-0.3-0.1-0.4c0-0.4,0.3-0.7,1-0.7
		c0.6,0,0.9,0.2,1,0.5c0.1,0.1,0.1,0.4,0.1,0.4h0.5c0-0.1,0-0.4-0.1-0.6c-0.2-0.4-0.6-0.8-1.5-0.8c-1,0-1.4,0.5-1.6,0.9
		c0,0.1,0,0.2,0,0.4c0,0.4,0.2,0.6,0.3,0.7c0.2,0.2,0.6,0.3,0.9,0.4L213.7,70.5z M210.3,70.2c0,0.9-0.3,1.3-0.6,1.6
		c-0.3,0.3-0.7,0.3-0.8,0.3c-0.4,0-0.6-0.1-0.8-0.2c-0.3-0.2-0.7-0.7-0.7-1.6c0-0.9,0.4-1.9,1.5-1.9c0.3,0,0.6,0.1,0.9,0.3
		C210.1,68.9,210.3,69.3,210.3,70.2 M210.9,70.1c0-1.2-0.6-1.7-1-2c-0.4-0.2-0.8-0.2-1-0.2c-0.3,0-0.5,0-0.6,0.1
		c-0.4,0.1-0.6,0.3-0.8,0.4c-0.7,0.6-0.7,1.6-0.7,1.9c0,1.2,0.6,1.8,1.1,2.1c0.4,0.2,0.8,0.2,0.9,0.2c0.2,0,0.6,0,1-0.3
		C210.9,71.7,210.9,70.4,210.9,70.1 M205.7,66.4h-0.6v6.1h0.6V66.4z M203.7,72.4V68h-0.6v2.4c0,0.4,0,0.5-0.1,0.7
		c-0.1,0.2-0.2,0.4-0.3,0.5c-0.1,0.1-0.4,0.4-0.9,0.4c-0.1,0-0.7,0-0.9-0.5c-0.1-0.2-0.1-0.4-0.1-0.8V68h-0.6v2.7c0,0.5,0,0.8,0.1,1
		c0.3,0.8,1.2,0.8,1.4,0.8c0.7,0,1.1-0.3,1.3-0.6c0.1-0.1,0.1-0.1,0.1-0.2v0.7H203.7z M198.8,66.4h-0.6v6.1h0.6V66.4z M196.8,66.4
		h-0.6v6.1h0.6V66.4z M191.8,69.9c0.1-0.5,0.3-0.8,0.4-1c0.1-0.1,0.4-0.5,1-0.5c0.6,0,1,0.3,1.2,0.8c0.1,0.3,0.1,0.5,0.1,0.6H191.8z
		 M195.1,70.3c0-0.6-0.1-1.2-0.4-1.7c-0.5-0.7-1.2-0.7-1.4-0.7c-0.6,0-1,0.2-1.2,0.4c-0.8,0.6-0.8,1.7-0.8,2c0,0.8,0.2,1.3,0.4,1.5
		c0.1,0.2,0.3,0.3,0.4,0.4c0.3,0.2,0.7,0.4,1.1,0.4c1,0,1.5-0.6,1.7-0.9c0.1-0.2,0.2-0.5,0.2-0.6h-0.6c-0.1,0.3-0.1,0.4-0.2,0.5
		c-0.3,0.5-0.9,0.5-1.1,0.5c-0.1,0-0.5,0-0.8-0.2c-0.4-0.3-0.6-0.7-0.6-1.2c0-0.1,0-0.2,0-0.3H195.1z M190.3,68.1
		c-0.1-0.6-0.4-0.9-0.5-1.1c-0.3-0.3-0.8-0.7-1.9-0.7c-1.3,0-2.2,0.7-2.6,1.9c-0.2,0.6-0.2,1-0.2,1.3c0,1.7,0.8,2.5,1.4,2.8
		c0.5,0.3,1,0.3,1.2,0.3c0.4,0,1.6-0.1,2.3-1.3c0.2-0.4,0.3-0.8,0.3-1h-0.6c-0.1,1-0.9,1.8-1.9,1.8c-0.6,0-0.9-0.2-1.1-0.3
		c-0.5-0.3-1-1-1-2.3c0-0.9,0.3-1.5,0.5-1.8c0.2-0.3,0.7-0.9,1.7-0.9c0.3,0,1.1,0,1.6,0.8c0.1,0.1,0.2,0.3,0.3,0.6L190.3,68.1z
		 M177.9,69.9c0.1-0.5,0.3-0.8,0.4-1c0.1-0.1,0.4-0.5,1-0.5c0.6,0,1,0.3,1.2,0.8c0.1,0.3,0.1,0.5,0.1,0.6H177.9z M181.1,70.3
		c0-0.6-0.1-1.2-0.4-1.7c-0.5-0.7-1.2-0.7-1.4-0.7c-0.6,0-1,0.2-1.2,0.4c-0.8,0.6-0.8,1.7-0.8,2c0,0.8,0.2,1.3,0.4,1.5
		c0.1,0.2,0.3,0.3,0.4,0.4c0.3,0.2,0.7,0.4,1.1,0.4c1,0,1.5-0.6,1.7-0.9c0.1-0.2,0.2-0.5,0.2-0.6h-0.6c-0.1,0.3-0.1,0.4-0.2,0.5
		c-0.3,0.5-0.9,0.5-1.1,0.5c-0.1,0-0.5,0-0.8-0.2c-0.4-0.3-0.6-0.7-0.6-1.2c0-0.1,0-0.2,0-0.3H181.1z M175.1,70.5
		c0.4,0.1,0.8,0.2,0.8,0.7c0,0.2-0.1,0.4-0.1,0.4c-0.2,0.3-0.6,0.4-0.9,0.4c-0.4,0-1-0.1-1.2-0.6c-0.1-0.1-0.1-0.3-0.1-0.4h-0.6
		c0,0.6,0.3,1.2,0.9,1.4c0.3,0.1,0.7,0.1,0.8,0.1c1.3,0,1.7-0.8,1.7-1.4c0-0.7-0.5-0.9-0.8-1c-0.1,0-0.2-0.1-0.3-0.1l-0.9-0.2
		c-0.4-0.1-0.6-0.2-0.7-0.3c-0.1-0.1-0.1-0.3-0.1-0.4c0-0.4,0.3-0.7,1-0.7c0.6,0,0.9,0.2,1,0.5c0.1,0.1,0.1,0.4,0.1,0.4h0.5
		c0-0.1,0-0.4-0.1-0.6c-0.2-0.4-0.6-0.8-1.5-0.8c-1,0-1.4,0.5-1.6,0.9c0,0.1,0,0.2,0,0.4c0,0.4,0.2,0.6,0.3,0.7
		c0.2,0.2,0.6,0.3,0.9,0.4L175.1,70.5z M171.4,70.1v0.4c0,0.3,0,0.4-0.1,0.7c-0.2,0.6-0.8,0.9-1.4,0.9c-0.1,0-0.4,0-0.7-0.2
		c-0.2-0.2-0.2-0.5-0.2-0.6c0-0.2,0.1-0.3,0.1-0.4c0.2-0.3,0.6-0.4,0.9-0.5L171.4,70.1z M169.8,69.9c-0.4,0.1-0.8,0.1-1.1,0.4
		c-0.2,0.2-0.3,0.6-0.3,0.9c0,0.5,0.2,1.2,1.4,1.2c0.8,0,1.3-0.3,1.5-0.6c0.1-0.1,0.1-0.1,0.2-0.3c0,0.1,0,0.2,0,0.3
		c0,0.4,0.3,0.6,0.6,0.6c0.2,0,0.3-0.1,0.4-0.1l0-0.4c-0.1,0.1-0.2,0.1-0.2,0.1c-0.1,0-0.2-0.1-0.2-0.1c-0.1-0.1,0-0.3,0-0.4v-2.2
		c0-0.3,0-0.5-0.1-0.7c-0.1-0.4-0.6-0.8-1.5-0.8c-1,0-1.5,0.4-1.7,0.9c0,0.1-0.1,0.3-0.1,0.6h0.6c0-0.1,0-0.2,0-0.3
		c0.1-0.2,0.1-0.3,0.2-0.3c0.2-0.3,0.6-0.3,0.9-0.3c0.6,0,0.9,0.2,1.1,0.5c0,0.1,0,0.2,0,0.4v0.1c0,0.2,0,0.2-0.1,0.3
		c-0.1,0-0.3,0.1-0.5,0.1L169.8,69.9z M167.1,70.2c0,0.4-0.1,0.9-0.3,1.3c-0.4,0.5-0.9,0.6-1.1,0.6c-0.3,0-0.6-0.1-0.7-0.2
		c-0.7-0.5-0.7-1.4-0.7-1.6c0-0.2,0-1.2,0.8-1.7c0.3-0.2,0.6-0.2,0.7-0.2c0.7,0,1.1,0.4,1.3,1C167.1,69.8,167.1,70.1,167.1,70.2
		 M164.2,72.4v-0.7c0,0.1,0.1,0.2,0.2,0.3c0.2,0.2,0.6,0.5,1.2,0.5c0.9,0,1.6-0.6,1.8-1.4c0.1-0.3,0.1-0.6,0.1-1
		c0-0.3,0-0.6-0.1-0.7c0-0.3-0.3-1.2-1.2-1.5c-0.2-0.1-0.4-0.1-0.6-0.1c-0.8,0-1.2,0.4-1.4,0.6c0,0-0.1,0.1-0.1,0.2v-2.4h-0.5v6.1
		H164.2z M158.9,70.1v0.4c0,0.3,0,0.4-0.1,0.7c-0.2,0.6-0.8,0.9-1.4,0.9c-0.1,0-0.4,0-0.7-0.2c-0.2-0.2-0.2-0.5-0.2-0.6
		c0-0.2,0.1-0.3,0.1-0.4c0.2-0.3,0.6-0.4,0.9-0.5L158.9,70.1z M157.4,69.9c-0.4,0.1-0.8,0.1-1.1,0.4c-0.2,0.2-0.3,0.6-0.3,0.9
		c0,0.5,0.2,1.2,1.4,1.2c0.8,0,1.3-0.3,1.5-0.6c0-0.1,0.1-0.1,0.2-0.3c0,0.1,0,0.2,0,0.3c0,0.4,0.3,0.6,0.6,0.6
		c0.2,0,0.3-0.1,0.4-0.1l0-0.4c-0.1,0.1-0.2,0.1-0.2,0.1c-0.1,0-0.2-0.1-0.2-0.1c-0.1-0.1,0-0.3,0-0.4v-2.2c0-0.3,0-0.5-0.1-0.7
		c-0.1-0.4-0.6-0.8-1.5-0.8c-1,0-1.5,0.4-1.7,0.9c0,0.1-0.1,0.3-0.1,0.6h0.6c0-0.1,0-0.2,0-0.3c0.1-0.2,0.1-0.3,0.2-0.3
		c0.2-0.3,0.6-0.3,0.9-0.3c0.6,0,0.9,0.2,1.1,0.5c0,0.1,0,0.2,0.1,0.4v0.1c0,0.2,0,0.2-0.1,0.3c0,0-0.3,0.1-0.5,0.1L157.4,69.9z
		 M151.7,66.3h-0.5v0.7h0.5V66.3z M151.7,68h-0.6v4.4h0.6V68z M149.2,70.2c0,0.1,0,0.7-0.3,1.2c-0.2,0.4-0.7,0.6-1.1,0.6
		c-0.1,0-0.5,0-0.8-0.2c-0.6-0.5-0.6-1.3-0.6-1.5c0-0.9,0.4-1.4,0.7-1.6c0.3-0.2,0.6-0.2,0.7-0.2c0.7,0,1.2,0.5,1.3,1.1
		C149.2,69.7,149.2,69.9,149.2,70.2 M149.2,72c0,0.4,0,0.8-0.3,1.2c-0.4,0.4-1,0.4-1.1,0.4c-0.3,0-0.7-0.1-1-0.3
		c-0.2-0.2-0.2-0.3-0.2-0.4h-0.6c0,0.2,0.1,0.3,0.1,0.4c0.2,0.4,0.7,0.8,1.6,0.8c0.8,0,1.3-0.3,1.6-0.6c0.4-0.4,0.4-1,0.4-1.5V68
		h-0.5v0.7c-0.1-0.1-0.1-0.2-0.2-0.3c-0.4-0.5-1.1-0.5-1.3-0.5c-0.4,0-0.6,0.1-0.7,0.1c-0.2,0.1-0.5,0.3-0.6,0.5
		c-0.4,0.5-0.6,1.1-0.6,1.7c0,1.1,0.7,2.2,1.9,2.2c0.6,0,1.1-0.3,1.2-0.5c0.1-0.1,0.1-0.1,0.2-0.3V72z M144.2,70.2
		c0,0.1,0,0.7-0.3,1.2c-0.2,0.4-0.7,0.6-1.1,0.6c-0.1,0-0.5,0-0.8-0.2c-0.6-0.5-0.6-1.3-0.6-1.5c0-0.9,0.4-1.4,0.7-1.6
		c0.3-0.2,0.6-0.2,0.7-0.2c0.7,0,1.2,0.5,1.3,1.1C144.2,69.7,144.2,69.9,144.2,70.2 M144.2,72c0,0.4,0,0.8-0.3,1.2
		c-0.4,0.4-1,0.4-1.1,0.4c-0.3,0-0.7-0.1-1-0.3c-0.2-0.2-0.2-0.3-0.2-0.4H141c0,0.2,0.1,0.3,0.1,0.4c0.2,0.4,0.7,0.8,1.6,0.8
		c0.8,0,1.3-0.3,1.6-0.6c0.4-0.4,0.4-1,0.4-1.5V68h-0.5v0.7c-0.1-0.1-0.1-0.2-0.2-0.3c-0.4-0.5-1.1-0.5-1.3-0.5
		c-0.4,0-0.6,0.1-0.7,0.1c-0.2,0.1-0.5,0.3-0.6,0.5c-0.4,0.5-0.6,1.1-0.6,1.7c0,1.1,0.7,2.2,1.9,2.2c0.6,0,1.1-0.3,1.2-0.5
		c0.1-0.1,0.1-0.1,0.2-0.3V72z M139,70.1v0.4c0,0.3,0,0.4-0.1,0.7c-0.2,0.6-0.8,0.9-1.4,0.9c-0.1,0-0.4,0-0.7-0.2
		c-0.2-0.2-0.2-0.5-0.2-0.6c0-0.2,0.1-0.3,0.1-0.4c0.2-0.3,0.6-0.4,0.9-0.5L139,70.1z M137.5,69.9c-0.4,0.1-0.8,0.1-1.1,0.4
		c-0.2,0.2-0.3,0.6-0.3,0.9c0,0.5,0.2,1.2,1.4,1.2c0.8,0,1.3-0.3,1.5-0.6c0.1-0.1,0.1-0.1,0.2-0.3c0,0.1,0,0.2,0,0.3
		c0,0.4,0.3,0.6,0.6,0.6c0.2,0,0.3-0.1,0.4-0.1l0-0.4c-0.1,0.1-0.2,0.1-0.2,0.1c-0.1,0-0.2-0.1-0.2-0.1c-0.1-0.1,0-0.3,0-0.4v-2.2
		c0-0.3,0-0.5-0.1-0.7c-0.1-0.4-0.6-0.8-1.5-0.8c-1,0-1.5,0.4-1.7,0.9c0,0.1-0.1,0.3-0.1,0.6h0.6c0-0.1,0-0.2,0-0.3
		c0.1-0.2,0.1-0.3,0.2-0.3c0.2-0.3,0.6-0.3,0.9-0.3c0.6,0,0.9,0.2,1.1,0.5c0,0.1,0,0.2,0,0.4v0.1c0,0.2,0,0.2-0.1,0.3
		c-0.1,0-0.3,0.1-0.5,0.1L137.5,69.9z M134.9,66.4h-0.6v6.1h0.6V66.4z M132.9,66.4h-0.6v6.1h0.6V66.4z M130.3,70.1v0.4
		c0,0.3,0,0.4-0.1,0.7c-0.2,0.6-0.8,0.9-1.4,0.9c-0.1,0-0.4,0-0.7-0.2c-0.2-0.2-0.2-0.5-0.2-0.6c0-0.2,0.1-0.3,0.1-0.4
		c0.2-0.3,0.6-0.4,0.9-0.5L130.3,70.1z M128.7,69.9c-0.4,0.1-0.8,0.1-1.1,0.4c-0.2,0.2-0.3,0.6-0.3,0.9c0,0.5,0.2,1.2,1.4,1.2
		c0.8,0,1.3-0.3,1.5-0.6c0.1-0.1,0.1-0.1,0.2-0.3c0,0.1,0,0.2,0,0.3c0,0.4,0.3,0.6,0.6,0.6c0.2,0,0.3-0.1,0.4-0.1l0-0.4
		c-0.1,0.1-0.2,0.1-0.2,0.1c-0.1,0-0.2-0.1-0.2-0.1c-0.1-0.1,0-0.3,0-0.4v-2.2c0-0.3,0-0.5-0.1-0.7c-0.1-0.4-0.6-0.8-1.5-0.8
		c-1,0-1.5,0.4-1.7,0.9c0,0.1-0.1,0.3-0.1,0.6h0.6c0-0.1,0-0.2,0-0.3c0.1-0.2,0.1-0.3,0.2-0.3c0.2-0.3,0.6-0.3,0.9-0.3
		c0.6,0,0.9,0.2,1.1,0.5c0,0.1,0,0.2,0.1,0.4v0.1c0,0.2,0,0.2-0.1,0.3c-0.1,0-0.3,0.1-0.5,0.1L128.7,69.9z M125.9,70.2
		c0,0.4-0.1,0.9-0.3,1.3c-0.4,0.5-0.8,0.6-1.1,0.6c-0.3,0-0.6-0.1-0.7-0.2c-0.7-0.5-0.7-1.4-0.7-1.6c0-0.2,0-1.2,0.8-1.7
		c0.3-0.2,0.6-0.2,0.7-0.2c0.7,0,1.1,0.4,1.3,1C125.9,69.8,125.9,70.1,125.9,70.2 M123.1,72.4v-0.7c0,0.1,0.1,0.2,0.2,0.3
		c0.2,0.2,0.6,0.5,1.2,0.5c0.9,0,1.6-0.6,1.8-1.4c0.1-0.3,0.1-0.6,0.1-1c0-0.3,0-0.6-0.1-0.7c-0.1-0.3-0.3-1.2-1.2-1.5
		c-0.2-0.1-0.4-0.1-0.6-0.1c-0.8,0-1.2,0.4-1.4,0.6c0,0-0.1,0.1-0.1,0.2v-2.4h-0.5v6.1H123.1z M121.1,72.4v-3.1c0-0.3,0-0.5-0.1-0.6
		c-0.2-0.5-0.7-0.7-0.9-0.7c-0.1,0-0.2,0-0.4,0c-0.7,0-1.1,0.3-1.2,0.5c-0.1,0.1-0.1,0.2-0.1,0.3c0,0,0-0.1-0.1-0.2
		c-0.2-0.3-0.5-0.6-1.2-0.6c-0.2,0-0.6,0-0.9,0.3c-0.2,0.2-0.3,0.4-0.4,0.5V68h-0.5v4.4h0.5v-2.1c0-0.6,0-1.2,0.5-1.6
		c0.1-0.1,0.4-0.3,0.8-0.3c0.9,0,0.9,0.7,0.9,1v3h0.5v-2.2c0-0.5,0-1.3,0.5-1.6c0.3-0.2,0.6-0.2,0.7-0.2c0.3,0,0.7,0.1,0.8,0.4
		c0.1,0.2,0.1,0.4,0.1,0.9v2.7H121.1z M113.8,66.4h-0.6v6.1h0.6V66.4z M108.6,66.3h-0.5v0.7h0.5V66.3z M108.6,68h-0.6v4.4h0.6V68z
		 M106.6,66.4h-0.6v6.1h0.6V66.4z M104.1,70.2c0,0.1,0,0.7-0.3,1.2c-0.2,0.4-0.7,0.6-1.1,0.6c-0.1,0-0.5,0-0.8-0.2
		c-0.6-0.5-0.6-1.3-0.6-1.5c0-0.9,0.4-1.4,0.7-1.6c0.3-0.2,0.6-0.2,0.7-0.2c0.7,0,1.2,0.5,1.3,1.1C104.1,69.7,104.1,69.9,104.1,70.2
		 M104.1,72c0,0.4,0,0.8-0.3,1.2c-0.4,0.4-1,0.4-1.1,0.4c-0.3,0-0.7-0.1-1-0.3c-0.2-0.2-0.2-0.3-0.2-0.4h-0.6c0,0.2,0.1,0.3,0.1,0.4
		c0.2,0.4,0.7,0.8,1.6,0.8c0.9,0,1.3-0.3,1.6-0.6c0.4-0.4,0.4-1,0.4-1.5V68h-0.5v0.7c-0.1-0.1-0.1-0.2-0.2-0.3
		c-0.4-0.5-1.1-0.5-1.3-0.5c-0.4,0-0.6,0.1-0.7,0.1c-0.2,0.1-0.5,0.3-0.6,0.5c-0.4,0.5-0.6,1.1-0.6,1.7c0,1.1,0.7,2.2,1.9,2.2
		c0.6,0,1.1-0.3,1.2-0.5c0.1-0.1,0.1-0.1,0.2-0.3V72z M96.5,69.9c0.1-0.5,0.3-0.8,0.4-1c0.1-0.1,0.4-0.5,1-0.5c0.6,0,1,0.3,1.2,0.8
		c0.1,0.3,0.1,0.5,0.1,0.6H96.5z M99.8,70.3c0-0.6-0.1-1.2-0.4-1.7c-0.5-0.7-1.2-0.7-1.4-0.7c-0.6,0-1,0.2-1.2,0.4
		C96,68.9,96,70,96,70.3c0,0.8,0.2,1.3,0.4,1.5c0.1,0.2,0.3,0.3,0.4,0.4c0.3,0.2,0.7,0.4,1.1,0.4c1,0,1.5-0.6,1.7-0.9
		c0.1-0.2,0.2-0.5,0.2-0.6h-0.6c-0.1,0.3-0.1,0.4-0.2,0.5C98.7,72,98.1,72,98,72c-0.1,0-0.5,0-0.8-0.2c-0.4-0.3-0.6-0.7-0.6-1.2
		c0-0.1,0-0.2,0-0.3H99.8z M94.3,70.1c0,0.3,0,0.5,0,0.6c0,0.1-0.1,0.4-0.2,0.6c-0.1,0.2-0.4,0.7-1.2,0.8c-0.3,0-0.6-0.1-0.8-0.3
		c-0.3-0.2-0.6-0.7-0.6-1.6c0-1.4,0.7-1.8,1.4-1.8c0.6,0,1.1,0.4,1.3,1C94.2,69.5,94.3,69.7,94.3,70.1 M94.8,72.4v-6.1h-0.5v2.4
		c-0.1-0.1-0.1-0.2-0.2-0.2c-0.2-0.2-0.6-0.6-1.3-0.6c-0.9,0-1.6,0.6-1.8,1.4c-0.1,0.4-0.1,0.7-0.1,0.9c0,0.2,0,1.2,0.6,1.8
		c0.5,0.5,1.1,0.5,1.3,0.5c0.7,0,1.1-0.4,1.3-0.5c0.1-0.1,0.1-0.2,0.2-0.2v0.7H94.8z"/>
</g>
</svg>
