<svg xmlns="http://www.w3.org/2000/svg" xmlns:xlink="http://www.w3.org/1999/xlink" width="80" height="85" viewBox="0 0 80 85"><defs><clipPath id="a"><rect width="55.061" height="70" fill="#399a00"/></clipPath></defs><g transform="translate(-1000 -1555)"><g transform="translate(1012.47 1555)"><g clip-path="url(#a)"><path d="M27.53,70C19.864,70,12.82,68.895,7.7,66.888,2.734,64.943,0,62.334,0,59.541c0-1.582.863-3.1,2.565-4.5l.482-.4-.482-.4C.863,52.846,0,51.333,0,49.751s.863-3.1,2.567-4.5l.482-.4-.482-.4C.863,43.055,0,41.542,0,39.959s.863-3.1,2.566-4.5l.482-.4-.482-.4C.863,33.265,0,31.752,0,30.17s.863-3.1,2.565-4.5l.482-.4-.482-.4C.863,23.475,0,21.962,0,20.38s.863-3.1,2.565-4.5l.482-.4-.482-.4C.863,13.685,0,12.172,0,10.59c0-3.248,3.71-6.238,10.18-8.2l3.265-.992L1.109,1.338A.669.669,0,1,1,1.107,0L29.978.13a.678.678,0,0,1,.194.028l.063.019.066,0c7.014.248,13.375,1.46,17.912,3.413,4.416,1.9,6.847,4.386,6.847,7,0,1.582-.863,3.1-2.566,4.5l-.482.4.482.4c1.7,1.4,2.566,2.916,2.566,4.5s-.863,3.1-2.566,4.5l-.482.4.482.4c1.7,1.4,2.566,2.916,2.566,4.5s-.863,3.1-2.566,4.5l-.482.4.482.4c1.7,1.4,2.566,2.915,2.566,4.5s-.863,3.1-2.567,4.5l-.482.4.482.4c1.7,1.4,2.567,2.916,2.567,4.5s-.863,3.095-2.565,4.5l-.482.4.482.4c1.7,1.4,2.565,2.916,2.565,4.5,0,3.191-3.606,6.149-9.893,8.115l-3.219,1.006H54.392a.669.669,0,1,1,0,1.338ZM4,55.634C2.258,56.869,1.338,58.22,1.338,59.54c0,2.283,2.735,4.585,7.5,6.315A56.871,56.871,0,0,0,27.53,68.662a56.866,56.866,0,0,0,18.688-2.807c4.769-1.73,7.5-4.031,7.5-6.315,0-1.321-.92-2.672-2.661-3.906l-.269-.191-.286.165c-5.072,2.925-13.446,4.6-22.976,4.6s-17.9-1.677-22.976-4.6l-.286-.165ZM27.53,50.419c-8.284,0-15.936,1.371-20.994,3.761l-.985.466.985.466c5.058,2.39,12.71,3.761,20.994,3.761S43.466,57.5,48.524,55.111l.985-.466-.985-.466c-5.058-2.39-12.71-3.761-20.994-3.761M4,45.843c-1.742,1.235-2.663,2.586-2.663,3.907S2.258,52.422,4,53.657l.269.191.286-.165A33.48,33.48,0,0,1,14.56,50.255l2.566-.505-2.566-.505a33.483,33.483,0,0,1-10-3.428l-.286-.165Zm46.5-.026a33.484,33.484,0,0,1-10,3.428l-2.566.505,2.566.505a33.47,33.47,0,0,1,10,3.428l.286.165.269-.191c1.742-1.235,2.662-2.586,2.662-3.907s-.921-2.672-2.663-3.907l-.269-.191ZM27.53,40.629C19.247,40.629,11.6,42,6.538,44.389l-.985.465.985.466c5.057,2.39,12.709,3.76,20.992,3.76s15.934-1.37,20.992-3.76l.986-.466-.986-.465c-4.953-2.34-12.392-3.7-20.477-3.758v0ZM4,36.053c-1.741,1.235-2.661,2.585-2.661,3.906S2.259,42.632,4,43.867l.269.191.286-.165a33.488,33.488,0,0,1,10.005-3.427l2.566-.505-2.566-.505A33.48,33.48,0,0,1,4.554,36.027l-.286-.165Zm46.507-.026A33.487,33.487,0,0,1,40.5,39.455l-2.566.505,2.566.505a33.477,33.477,0,0,1,10,3.427l.286.165.269-.191c1.743-1.235,2.664-2.587,2.664-3.908s-.92-2.671-2.662-3.906l-.269-.191ZM27.384,30.838c-8.226.016-15.824,1.387-20.847,3.76l-.985.466.985.465c5.057,2.39,12.709,3.761,20.993,3.761S43.466,37.92,48.523,35.53l.985-.466-.985-.466c-5.036-2.38-12.656-3.75-20.9-3.76Zm23.123-4.6a33.48,33.48,0,0,1-10,3.428l-2.565.505,2.565.505a33.481,33.481,0,0,1,10,3.427l.286.165.269-.191c1.742-1.235,2.663-2.586,2.663-3.907s-.92-2.672-2.661-3.906l-.269-.191ZM4,26.263C2.258,27.5,1.338,28.848,1.338,30.169S2.259,32.841,4,34.076l.269.191.286-.165a33.486,33.486,0,0,1,10-3.427l2.565-.505-2.565-.505a33.485,33.485,0,0,1-10-3.428l-.286-.165Zm23.385-5.214c-8.225.016-15.824,1.386-20.847,3.76l-.985.466.985.466C11.594,28.13,19.246,29.5,27.53,29.5S43.466,28.13,48.524,25.74l.985-.466-.985-.465C43.5,22.435,35.9,21.064,27.677,21.048Zm23.122-4.6a33.473,33.473,0,0,1-10,3.428l-2.565.505,2.565.505a33.479,33.479,0,0,1,10,3.427l.286.165.269-.191c1.742-1.235,2.662-2.586,2.662-3.907s-.92-2.672-2.661-3.906l-.269-.191ZM4,16.473c-1.741,1.235-2.661,2.585-2.661,3.906S2.258,23.051,4,24.286l.269.191.286-.165a33.482,33.482,0,0,1,10-3.427l2.565-.505-2.565-.505a33.483,33.483,0,0,1-10-3.428l-.286-.165ZM27.53,11.258c-8.284,0-15.936,1.371-20.994,3.761l-.985.465.985.466c5.05,2.387,12.692,3.758,20.964,3.761h.041c8.29,0,15.931-1.374,20.981-3.761l.985-.466-.985-.466c-5.057-2.39-12.709-3.761-20.994-3.761m0-9.79A56.865,56.865,0,0,0,8.843,4.275c-4.769,1.73-7.5,4.032-7.5,6.315,0,1.321.921,2.672,2.662,3.907l.269.191.286-.165C9.627,11.6,18,9.92,27.53,9.92s17.9,1.677,22.975,4.6l.286.165.269-.191c1.742-1.235,2.662-2.586,2.662-3.907,0-4.4-10.525-9.121-26.193-9.121" transform="translate(0)" fill="#399a00"/></g></g><circle cx="40" cy="40" r="40" transform="translate(1000 1560)" fill="rgba(57,154,0,0.08)"/></g></svg>