<svg xmlns="http://www.w3.org/2000/svg" xmlns:xlink="http://www.w3.org/1999/xlink" width="80" height="85" viewBox="0 0 80 85"><defs><clipPath id="a"><rect width="60.53" height="64" fill="#399a00"/></clipPath></defs><g transform="translate(-1401 -1195)"><g transform="translate(1412.401 1195)"><g clip-path="url(#a)"><path d="M41.987,9.85a2.877,2.877,0,0,1-3.112-3.12c-.007-1.317-.011-2.505,0-3.723a2.824,2.824,0,0,1,2.971-3Q44.889,0,47.932,0t6.086.008A2.821,2.821,0,0,1,57,2.993c.012,1.14.007,2.3,0,3.426v.128c-.009,2.089-1.14,3.293-3.1,3.3ZM40.438,3.023c-.013,1.24-.008,2.506,0,3.7.006,1.094.472,1.562,1.557,1.566h11.9c1.08,0,1.542-.475,1.547-1.578.006-1.348.011-2.513,0-3.7a1.292,1.292,0,0,0-1.425-1.438q-3.04-.01-6.081-.01t-6.081.01a1.3,1.3,0,0,0-1.412,1.451Z" transform="translate(-32.649 0)" fill="#399a00"/><path d="M30.814,107.544a8.54,8.54,0,0,1-3.13-.6l-.171-.067-.174.06a4.884,4.884,0,0,1-1.584.3c-1.579.008-5.678.012-10.444.012s-8.866,0-10.445-.012A4.839,4.839,0,0,1,.033,102.4C0,95.822-.021,88.745.033,81.52a4.49,4.49,0,0,1,1.856-3.7l.439-.332-.372-.406a6.952,6.952,0,0,1,0-9.6l.367-.4-.43-.333A4.785,4.785,0,0,1,.121,63.963a3.779,3.779,0,0,1,.01-1.842A16.084,16.084,0,0,1,6.813,52.31a2.89,2.89,0,0,1,1.63-.471H22.178a2.9,2.9,0,0,1,1.631.471A16.129,16.129,0,0,1,30.5,62.142l.006.02a2.575,2.575,0,0,1,.074.367l.064.428h1.773A1.9,1.9,0,0,1,34.3,64.635l1.135,9.748a2.565,2.565,0,0,0,2.549,2.271h6.784a2.568,2.568,0,0,0,2.55-2.271l1.134-9.748a1.9,1.9,0,0,1,1.885-1.678h5.206a1.889,1.889,0,0,1,1.889,1.725L60.5,98.165a8.6,8.6,0,0,1-8.56,9.379Zm-7-9.235a7.032,7.032,0,0,0,7,7.673h21.12a7.029,7.029,0,0,0,7-7.674l-3.09-33.787H50.035L48.867,74.566a4.129,4.129,0,0,1-4.1,3.652H37.981a4.129,4.129,0,0,1-4.1-3.652L32.711,64.521H26.9ZM2.791,79.095a2.9,2.9,0,0,0-1.2,2.432c-.053,7.2-.031,14.281,0,20.864a3.279,3.279,0,0,0,3.272,3.277l3.173.007c2.645.009,5.282.013,7.836.013,2.815,0,5.612-.005,8.314-.016l1.171,0-.812-.844c-.019-.02-.039-.039-.06-.058l-.024-.023a8.617,8.617,0,0,1-2.212-6.577l1.754-19.174H2.926ZM3.3,68.34a5.467,5.467,0,0,0-1.7,3.939,5.62,5.62,0,0,0,1.871,4.109,1.447,1.447,0,0,1,.411.679l.106.36H24.152L25,68.2H3.441ZM8.443,53.4a1.358,1.358,0,0,0-.764.211,14.417,14.417,0,0,0-6.04,8.916,2.236,2.236,0,0,0,.009,1.1,3.243,3.243,0,0,0,1.535,2.117,1.59,1.59,0,0,1,.529.62l.141.267H25.14l.178-1.952a1.888,1.888,0,0,1,1.89-1.724h1.884l-.17-.632a14.407,14.407,0,0,0-5.978-8.713,1.358,1.358,0,0,0-.765-.211Z" transform="translate(0 -43.544)" fill="#399a00"/><path d="M222.707,284.408a.728.728,0,1,1,0-1.457h7.969a.728.728,0,1,1,0,1.457Z" transform="translate(-186.462 -237.679)" fill="#399a00"/></g></g><circle cx="40" cy="40" r="40" transform="translate(1401 1200)" fill="rgba(57,154,0,0.08)"/></g></svg>