<svg xmlns="http://www.w3.org/2000/svg" xmlns:xlink="http://www.w3.org/1999/xlink" width="80" height="86" viewBox="0 0 80 86"><defs><clipPath id="a"><rect width="56.808" height="70" fill="#399a00"/></clipPath></defs><g transform="translate(-1400 -1554)"><g transform="translate(1414.182 1554)"><g clip-path="url(#a)"><path d="M4.962,70a2.891,2.891,0,0,1-2.034-.839L.84,67.071a2.864,2.864,0,0,1,.09-4.138L20.2,45.289l-.649-12.266a1.875,1.875,0,0,1,.442-1.408,3.218,3.218,0,0,1,2.327-.764,3.211,3.211,0,0,1,2.361.506,1.889,1.889,0,0,1,.593,1.363l.4,7.558L37.215,29.71c.355-2.1,1.375-5.647,4.168-10.949.381-.724.792-1.489,1.252-2.331L38.744,5.979a1.8,1.8,0,0,1-.022-1.423c.312-.681,1.046-.952,1.823-1.24l.214-.08a3.275,3.275,0,0,1,2.458-.29,1.735,1.735,0,0,1,.9,1.033L46.32,9.9C49,5.285,51.355,1.437,51.638.977A1.888,1.888,0,0,1,52.757.037a2.493,2.493,0,0,1,1.868.6l.292.18c.808.494,1.644,1,1.849,1.856a1.681,1.681,0,0,1-.241,1.3l-.022.037C55.464,5.7,50.1,14.517,46.453,21.43a45.29,45.29,0,0,0-2.76,6.2l7.22-2.6a1.684,1.684,0,0,1,1.336.008A2.667,2.667,0,0,1,53.4,26.792c.042.122.084.247.13.375s.094.253.14.373a2.574,2.574,0,0,1,.226,2.017,1.7,1.7,0,0,1-1.035.861L41.049,34.675,6.991,69.148A2.853,2.853,0,0,1,4.962,70M22.883,32.3c-.193,0-.373.01-.484.016-.307.016-1.117.058-1.317.281a.536.536,0,0,0-.069.351L21.7,45.9,1.92,64.013a1.4,1.4,0,0,0-.044,2.022l2.088,2.089a1.4,1.4,0,0,0,1.986-.006L40.24,33.41,52.36,29.041a.7.7,0,0,0,.2-.1,3.432,3.432,0,0,0-.263-.879c-.049-.128-.1-.261-.149-.4s-.094-.269-.139-.4a3.276,3.276,0,0,0-.393-.9.591.591,0,0,0-.207.047l-8.739,3.151-.852-.852.124-.418a42.974,42.974,0,0,1,3.214-7.538C48.82,13.8,54.21,4.944,55.254,3.24l.021-.035a.339.339,0,0,0,.067-.194c-.063-.261-.74-.674-1.188-.948l-.3-.185a4.045,4.045,0,0,0-.757-.41,1.1,1.1,0,0,0-.2.265c-.314.512-3.1,5.069-6.08,10.249l-.777,1.353L42.74,4.491a.413.413,0,0,0-.132-.211c-.206-.095-.885.161-1.335.329l-.22.082a3.231,3.231,0,0,0-1,.477.652.652,0,0,0,.063.3L44.035,15.99a1.421,1.421,0,0,0,.065.135l.183.348-.189.345c-.527.961-.99,1.82-1.414,2.626-2.817,5.345-3.761,8.793-4.058,10.744l-.039.256L24.374,43.453,23.812,32.8a.554.554,0,0,0-.108-.35,1.506,1.506,0,0,0-.821-.151" transform="translate(0 0)" fill="#399a00"/></g></g><circle cx="40" cy="40" r="40" transform="translate(1400 1560)" fill="rgba(57,154,0,0.08)"/></g></svg>