<svg xmlns="http://www.w3.org/2000/svg" width="133.908" height="94.844" viewBox="0 0 133.908 94.844"><g transform="translate(-1406.262 -2279.89)"><g transform="translate(1439.045 2304.524)"><path d="M-187.371-163.057v2.366a1.416,1.416,0,0,1-1.577,1.578h-4.969l-10.79,38.425a2.012,2.012,0,0,1-2.148,1.629h-5.092a1.979,1.979,0,0,1-2.13-1.674l-7.506-30.71-8.041,30.727a2,2,0,0,1-2.139,1.656h-4.742a2.022,2.022,0,0,1-2.157-1.639L-249.3-159.112h-4.781a1.431,1.431,0,0,1-1.6-1.569l-.035-2.366a1.4,1.4,0,0,1,1.56-1.586h15.68a1.416,1.416,0,0,1,1.578,1.577v2.366a1.416,1.416,0,0,1-1.578,1.578h-4.118l8.512,33.492,8.675-33.325a2,2,0,0,1,2.139-1.657h3.41a1.987,1.987,0,0,1,2.138,1.666l8.407,33.646,8.912-33.822h-3.892a1.417,1.417,0,0,1-1.578-1.578v-2.366a1.416,1.416,0,0,1,1.578-1.577h15.339a1.415,1.415,0,0,1,1.577,1.577" transform="translate(255.71 164.633)" fill="#fff"/></g><g transform="translate(1406.262 2279.892)"><path d="M-21.219-129.727c2.06.535,4.209,3.107,4.209,9.443v20.055c0,7.494,2.494,10.156,5.6,10.779A1.812,1.812,0,0,1-9.75-87.456v3.174c0,1.258-.635,1.982-1.793,1.893-6.292-.512-12.038-4-12.127-16.447l-.1-21.235c0-4.644-1.514-5.969-3.508-6.314a1.792,1.792,0,0,1-1.681-1.982v-2.817a1.772,1.772,0,0,1,1.67-1.982c1.993-.379,3.519-1.782,3.519-6.848l.1-21.67c.089-10.078,4.432-15.144,12.127-15.534,1.158-.067,1.793.668,1.793,1.915v3.051a1.75,1.75,0,0,1-1.737,1.949c-4.064.546-5.523,3.875-5.523,10.122L-17.1-139.8c0,6.537-2.06,9.432-4.12,10.078" transform="translate(28.958 177.224)" fill="#fff"/></g><g transform="translate(1520.96 2279.89)"><path d="M0,85.29V82.126a1.833,1.833,0,0,1,1.568-1.887c3.127-.59,5.587-3.239,5.587-10.8l.1-20.054c0-6.327,2.058-8.9,4.215-9.437C9.31,39.3,7.253,36.409,7.253,29.868l-.1-20.377C7.155,3.24,5.7-.085,1.706-.632A1.857,1.857,0,0,1,0-2.55V-5.575A1.806,1.806,0,0,1,1.823-7.548c7.685.418,12,5.48,12,15.539l.1,21.663c0,5.137,1.627,6.51,3.676,6.863a1.848,1.848,0,0,1,1.616,1.909v2.939a1.841,1.841,0,0,1-1.626,1.91c-2.049.332-3.666,1.63-3.666,6.327l-.1,21.233c-.088,12.4-5.695,15.9-11.947,16.439A1.808,1.808,0,0,1,0,85.29" transform="translate(0 7.55)" fill="#fff"/></g></g></svg>