<svg xmlns="http://www.w3.org/2000/svg" width="41.836" height="29.631" viewBox="0 0 41.836 29.631">


  <style>
    path{
      fill: #A6A39F;
    }
  </style>

  <g id="Raggruppa_260" data-name="Raggruppa 260" transform="translate(-337.503 -547.174)">
    <g id="Raggruppa_44" data-name="Raggruppa 44" transform="translate(337.503 547.174)">
      <g id="Raggruppa_42" data-name="Raggruppa 42" transform="translate(10.242 7.696)">
        <path id="Tracciato_38" data-name="Tracciato 38" d="M388.294,569.788v.74a.442.442,0,0,1-.493.493h-1.552l-3.371,12.005a.628.628,0,0,1-.671.509h-1.591a.618.618,0,0,1-.666-.523l-2.345-9.594-2.513,9.6a.624.624,0,0,1-.668.518h-1.481a.631.631,0,0,1-.674-.512l-3.323-12h-1.493a.447.447,0,0,1-.5-.49l-.011-.74a.438.438,0,0,1,.487-.5h4.9a.442.442,0,0,1,.493.493v.74a.442.442,0,0,1-.493.493h-1.287l2.659,10.464,2.711-10.412a.624.624,0,0,1,.668-.518h1.066a.621.621,0,0,1,.668.521l2.627,10.512,2.784-10.567h-1.216a.442.442,0,0,1-.493-.493v-.74a.442.442,0,0,1,.493-.493H387.8A.442.442,0,0,1,388.294,569.788Z" transform="translate(-366.944 -569.295)"/>
      </g>
      <g id="Raggruppa_43" data-name="Raggruppa 43">
        <path id="Tracciato_39" data-name="Tracciato 39" d="M339.921,562.014c.644.167,1.315.971,1.315,2.95v6.266c0,2.341.779,3.173,1.75,3.368a.566.566,0,0,1,.518.623v.992c0,.393-.2.619-.56.591-1.966-.16-3.761-1.249-3.789-5.139l-.031-6.635c0-1.451-.473-1.865-1.1-1.973a.56.56,0,0,1-.525-.619v-.88a.554.554,0,0,1,.522-.619c.623-.118,1.1-.557,1.1-2.14l.031-6.77c.028-3.148,1.385-4.731,3.789-4.853.362-.021.56.209.56.6v.953a.547.547,0,0,1-.543.609c-1.27.171-1.726,1.211-1.726,3.162l-.028,6.367C341.208,560.907,340.565,561.812,339.921,562.014Z" transform="translate(-337.503 -547.174)"/>
        <path id="Tracciato_40" data-name="Tracciato 40" d="M440.5,576.18v-.988a.573.573,0,0,1,.49-.59c.977-.184,1.745-1.012,1.745-3.374l.03-6.265c0-1.977.643-2.781,1.317-2.948-.674-.2-1.317-1.106-1.317-3.15l-.03-6.366c0-1.954-.453-2.992-1.7-3.163a.58.58,0,0,1-.533-.6v-.945a.565.565,0,0,1,.57-.616c2.4.131,3.748,1.712,3.748,4.855l.031,6.768c0,1.6.508,2.034,1.148,2.144a.577.577,0,0,1,.505.6v.918a.575.575,0,0,1-.508.6c-.64.1-1.145.509-1.145,1.977l-.031,6.634c-.027,3.873-1.779,4.969-3.733,5.136A.565.565,0,0,1,440.5,576.18Z" transform="translate(-404.67 -547.174)"/>
      </g>
    </g>
  </g>
</svg>
