<?xml version="1.0" standalone="no"?>
<!DOCTYPE svg PUBLIC "-//W3C//DTD SVG 20010904//EN"
 "http://www.w3.org/TR/2001/REC-SVG-20010904/DTD/svg10.dtd">
<svg version="1.0" xmlns="http://www.w3.org/2000/svg"
 width="700.000000pt" height="700.000000pt" viewBox="0 0 700.000000 700.000000"
 preserveAspectRatio="xMidYMid meet">
<metadata>
Created by potrace 1.14, written by Peter Selinger 2001-2017
</metadata>
<g transform="translate(0.000000,700.000000) scale(0.100000,-0.100000)"
fill="#000000" stroke="none">
<path d="M804 5964 c-135 -23 -244 -80 -332 -173 -99 -104 -163 -266 -187
-478 -6 -54 -13 -533 -15 -1073 -1 -322 -8 -388 -50 -471 -24 -46 -63 -73
-136 -95 -76 -22 -88 -50 -82 -192 3 -68 9 -117 17 -126 7 -8 36 -22 64 -32
106 -34 149 -79 172 -178 8 -33 13 -170 14 -386 4 -515 10 -926 15 -1020 13
-218 91 -422 206 -540 101 -103 290 -181 425 -174 82 4 87 17 88 212 0 83 -2
95 -23 117 -13 13 -46 31 -74 39 -152 45 -244 175 -271 384 -3 20 -7 325 -10
677 -3 352 -8 666 -10 697 -6 57 -35 160 -61 210 -21 41 -73 97 -105 114 -30
15 -39 34 -15 34 21 0 90 80 119 140 60 123 64 175 72 1065 2 292 7 541 10
555 2 14 10 49 16 79 32 153 108 231 265 271 22 5 51 21 63 34 21 22 23 34 24
139 1 131 -8 161 -57 176 -35 12 -47 11 -142 -5z"/>
<path d="M6030 5951 c-32 -32 -33 -35 -32 -186 1 -87 2 -91 30 -116 17 -16 52
-32 83 -38 132 -29 207 -122 244 -306 8 -41 14 -302 20 -885 5 -560 7 -593 40
-699 32 -100 71 -155 153 -217 12 -9 8 -15 -27 -35 -77 -43 -140 -171 -156
-318 -8 -75 -13 -325 -16 -909 -2 -444 -7 -507 -50 -627 -44 -122 -114 -189
-236 -225 -72 -22 -84 -43 -85 -151 -1 -154 0 -158 30 -188 25 -26 33 -28 87
-24 69 4 172 33 253 71 84 38 198 156 244 252 40 84 73 182 82 250 3 25 8 56
11 70 7 31 14 426 19 1002 3 389 6 443 22 495 23 74 85 139 141 149 52 9 90
33 103 63 5 14 9 74 7 132 -2 127 -8 136 -100 169 -81 30 -120 72 -148 158
-19 63 -21 94 -25 472 -7 686 -13 1044 -19 1070 -3 14 -10 46 -15 71 -43 216
-157 378 -325 459 -77 37 -138 53 -253 66 -48 5 -54 3 -82 -25z"/>
<path d="M1880 4689 c-74 -3 -136 -7 -137 -8 -18 -11 -29 -69 -28 -133 3 -98
18 -138 54 -139 14 -1 81 -2 149 -3 67 -2 124 -5 127 -8 4 -4 91 -309 174
-613 23 -82 62 -222 86 -310 25 -88 50 -176 55 -195 5 -19 21 -78 35 -130 14
-52 32 -117 41 -145 8 -27 28 -99 44 -160 17 -60 35 -124 41 -142 5 -18 12
-41 14 -51 9 -47 75 -273 85 -292 21 -40 68 -50 233 -50 170 0 191 7 216 67 8
21 116 417 147 543 4 14 156 600 210 810 69 264 75 277 88 205 3 -16 14 -64
25 -105 10 -41 47 -190 81 -330 34 -140 63 -259 64 -265 2 -5 6 -21 9 -35 21
-78 79 -319 83 -340 3 -14 7 -32 10 -40 3 -8 8 -24 10 -35 2 -11 26 -109 53
-219 40 -163 54 -203 75 -225 l26 -26 185 -2 185 -2 25 27 c27 29 43 77 120
357 25 94 49 179 53 190 3 11 7 25 8 30 1 6 14 51 28 100 65 229 148 521 151
535 3 13 33 121 80 285 51 176 128 454 131 474 3 13 9 32 14 41 5 10 7 20 4
22 -17 17 38 28 162 32 76 2 147 7 156 11 25 10 35 51 33 140 -2 97 -13 120
-60 129 -39 8 -781 8 -834 1 -64 -9 -73 -26 -70 -138 4 -138 3 -137 153 -143
66 -2 122 -6 124 -9 3 -2 -7 -48 -22 -102 -32 -118 -176 -669 -241 -918 -26
-99 -67 -252 -91 -340 -24 -88 -47 -172 -49 -187 -3 -15 -10 -40 -16 -55 -6
-15 -10 -30 -9 -33 3 -13 -23 -100 -29 -100 -4 0 -40 129 -80 288 -75 295 -78
310 -85 340 -21 92 -263 1051 -277 1097 -26 86 -43 94 -198 94 -68 0 -133 -5
-145 -10 -35 -17 -52 -49 -79 -154 -14 -55 -46 -179 -71 -275 -110 -421 -140
-538 -240 -925 -59 -225 -110 -419 -115 -430 -7 -17 -10 -15 -19 20 -13 49
-203 796 -206 810 -1 6 -5 19 -9 30 -3 11 -8 31 -11 45 -5 26 -92 368 -152
600 -19 74 -37 146 -40 160 -2 14 -7 31 -9 38 -3 8 11 12 48 13 123 2 183 6
204 12 31 11 41 51 38 152 -3 128 12 122 -292 124 -136 1 -279 3 -318 4 -38 1
-131 -1 -205 -4z"/>
</g>
</svg>
