<?xml version="1.0" encoding="UTF-8"?>
<svg id="Layer_1" data-name="Layer 1" xmlns="http://www.w3.org/2000/svg" viewBox="0 0 340.51 188.97">
  <defs>
    <style>
      .cls-1 {
        fill: #231f20;
        stroke-width: 0px;
      }
    </style>
  </defs>
  <path class="cls-1" d="m288.07,172.26c-.41,0-.82-.16-1.12-.49-.58-.62-.54-1.59.08-2.17,23.78-22.07,42.24-41.75,48.46-48.51-26.48-.49-202.13-2.48-303.74,28.2-1.07,1.69-5,8.19-9.69,19.78-.31.79-1.21,1.16-2,.85-.78-.32-1.16-1.21-.84-2,5.63-13.89,10.09-20.52,10.28-20.79.2-.29.49-.5.82-.61,109.92-33.4,306.65-28.47,308.62-28.42.6.02,1.13.38,1.37.93.24.55.13,1.18-.27,1.63-.21.24-21.51,23.9-50.93,51.2-.29.27-.67.41-1.04.41Z"/>
  <path class="cls-1" d="m128.66,109.81c-.59,0-1.13-.34-1.39-.88l-7.49-15.95c-.2-.43-.19-.94.03-1.36s.63-.72,1.1-.8c.39-.07,36.57-6.29,65.67-7.13-16.27-7.16-36-12.55-55.78-9.96-.53.07-49.47,6.39-89.5,17.41l48.06,5.21c.84.09,1.45.85,1.36,1.69-.09.84-.85,1.46-1.69,1.36l-55.83-6.05c-.73-.08-1.3-.66-1.36-1.38s.39-1.4,1.09-1.61c41.37-12.43,96.92-19.6,97.48-19.67,38.28-5,76.07,18.81,90.54,29.28.54.39.76,1.08.56,1.71-.2.63-.79,1.06-1.45,1.07l-2.92.02c-21.77,0-65.97,3.13-88.22,7.02-.09.02-.18.02-.26.02Zm-5.24-16.3l6.13,13.06c22.09-3.72,63.62-6.7,85.69-6.86-5.59-3.82-13.26-8.59-22.3-13.05-.06,0-.12.01-.18.01h0c-25.89,0-60.71,5.43-69.33,6.84Z"/>
  <path class="cls-1" d="m74.09,82.37c-.45,0-.91-.2-1.21-.59l-16.53-21.17c-.52-.67-.4-1.63.26-2.15.66-.52,1.63-.41,2.15.26l16.53,21.17c.52.67.4,1.63-.26,2.15-.28.22-.61.33-.94.33Z"/>
  <path class="cls-1" d="m67,124.25c-.34,0-.67-.11-.96-.33-.66-.53-.77-1.49-.24-2.16,10.57-13.26,5.13-24.01,4.89-24.46-.39-.75-.11-1.68.64-2.07.75-.4,1.67-.12,2.07.63.28.52,6.67,12.91-5.21,27.82-.3.38-.75.58-1.2.58Z"/>
  <path class="cls-1" d="m79.18,189.07c-13.3,0-22.59-7.06-25.33-9.43-30.27,21.54-52.63-.53-52.85-.76-.59-.6-.59-1.57.01-2.17.6-.6,1.57-.59,2.17.01.85.86,21.19,20.78,49.68-.16.26-.19.58-.3.91-.3h.34c.41,0,.8.16,1.09.46.85.86,21.17,20.78,49.67-.16.26-.19.58-.3.91-.3h.32c.41,0,.8.16,1.09.46.85.86,21.19,20.77,49.68-.16.26-.19.58-.3.91-.3h.31c.41,0,.8.16,1.09.46.85.86,21.17,20.78,49.68-.16.26-.19.58-.3.91-.3h.31c.41,0,.8.16,1.09.46.85.86,21.18,20.78,49.68-.16.26-.19.58-.3.91-.3h.31c.41,0,.8.16,1.09.46.85.86,21.17,20.78,49.68-.16.68-.5,1.64-.36,2.14.33.5.68.35,1.64-.33,2.14-27.37,20.1-48.44,4.4-52.83.61-26.95,19.17-47.64,3.75-51.99,0-26.96,19.17-47.64,3.75-51.99,0-26.98,19.18-47.66,3.75-52,0-9.9,7.04-18.96,9.42-26.67,9.42Z"/>
  <path class="cls-1" d="m274.01,149.39c-2.25,0-4.08-1.83-4.08-4.08s1.83-4.08,4.08-4.08,4.08,1.83,4.08,4.08-1.83,4.08-4.08,4.08Zm0-5.1c-.56,0-1.01.46-1.01,1.02s.45,1.01,1.01,1.01,1.01-.44,1.01-1.01-.45-1.02-1.01-1.02Z"/>
  <path class="cls-1" d="m233.07,149.71c-2.25,0-4.08-1.83-4.08-4.08s1.83-4.08,4.08-4.08,4.08,1.83,4.08,4.08-1.83,4.08-4.08,4.08Zm0-5.1c-.56,0-1.02.46-1.02,1.02s.46,1.01,1.02,1.01,1.01-.44,1.01-1.01-.44-1.02-1.01-1.02Z"/>
</svg>