<svg xmlns="http://www.w3.org/2000/svg" xmlns:xlink="http://www.w3.org/1999/xlink" width="80" height="80" viewBox="0 0 80 80"><defs><clipPath id="a"><rect width="60.11" height="70" fill="#399a00"/></clipPath></defs><g transform="translate(-1000 -1200)"><g transform="translate(1009.531 1200)"><g clip-path="url(#a)"><path d="M12.943,70a.733.733,0,0,1-.723-.723V62.624l-7.375.515H4.8a.7.7,0,0,1-.726-.642L0,4A.637.637,0,0,1,.65,3.258L46.986.013,47.039,0a.165.165,0,0,1,.03,0,.5.5,0,0,1,.323.144.833.833,0,0,1,.276.447v.03l.661,9.35H59.311a.9.9,0,0,1,.8.736v58.57a.733.733,0,0,1-.723.723Zm.647-1.445H58.664V11.342H13.59ZM1.394,4.542,5.358,61.68l6.711-.5V10.619a.733.733,0,0,1,.723-.723h34.1l-.572-8.49Z" transform="translate(0)" fill="#399a00"/><path d="M120.526,120.893a.685.685,0,0,1-.723-.723.733.733,0,0,1,.723-.723h11.988a.723.723,0,1,1,0,1.446Z" transform="translate(-98.837 -98.544)" fill="#399a00"/><path d="M120.526,162.685a.685.685,0,0,1-.723-.723.733.733,0,0,1,.723-.722H149.4a.723.723,0,0,1,0,1.446Z" transform="translate(-98.837 -133.022)" fill="#399a00"/><path d="M120.526,204.476a.685.685,0,0,1-.723-.723.733.733,0,0,1,.723-.722H149.4a.723.723,0,0,1,0,1.446Z" transform="translate(-98.837 -167.5)" fill="#399a00"/><path d="M120.526,246.267a.685.685,0,0,1-.723-.723.733.733,0,0,1,.723-.723H149.4a.723.723,0,0,1,0,1.446Z" transform="translate(-98.837 -201.977)" fill="#399a00"/></g></g><circle cx="40" cy="40" r="40" transform="translate(1000 1200)" fill="rgba(57,154,0,0.08)"/></g></svg>