<svg xmlns="http://www.w3.org/2000/svg" xmlns:xlink="http://www.w3.org/1999/xlink" width="80" height="86" viewBox="0 0 80 86"><defs><clipPath id="a"><rect width="59.145" height="73" fill="#399a00"/></clipPath></defs><g transform="translate(-1401 -1314)"><g transform="translate(1412.184 1314)"><g clip-path="url(#a)"><path d="M15.4,154.388c-2.426-3.632-3.185-7.776-3.68-13.709l-.065-.763-.918.076-.311-15.22a1.348,1.348,0,0,0-1.081-1.3l-.542-.108a1.354,1.354,0,0,0-1.594,1.114l-.007-.05a1.332,1.332,0,0,0-1.218-1.172l-.551-.049A1.35,1.35,0,0,0,3.976,124.7l.821,6.986L3.21,125.176a1.334,1.334,0,0,0-1.337-1.033l-.551.009A1.358,1.358,0,0,0,.033,125.8L3.422,140.6l-1.127.094.063.763c.7,8.409,2.233,13.7,5.3,18.258,3.518,5.226,9.1,9.444,18.1,13.678l.691.326,3.995-8.5-.691-.326c-7.407-3.489-11.832-6.727-14.351-10.5M7.843,136.375l-.018-2.847.639,4.823h0l-.621-1.977Zm.6,3.808-.575.047-.011-1.912Zm.827-.068-1.02-7.742,1.647-5.7.275,13.369ZM8.057,124.1a.728.728,0,0,1,.639-.167l.54.108a.769.769,0,0,1,.619.709l-1.792,6.207-.264-2L7.771,124.7a.778.778,0,0,1,.286-.6m-3.295-.088a.746.746,0,0,1,.551-.236h.068l.551.05a.782.782,0,0,1,.7.668l.588,4.447.038,5.564h0L4.779,126.62h0l-.232-1.976a.779.779,0,0,1,.216-.63m.372,5.643h0l2.134,6.794h0l.027,3.828-.4.032-.988-4.053ZM.74,125.018a.76.76,0,0,1,.59-.3l.551-.009a.8.8,0,0,1,.767.59l2.7,11.065.133,1.134A122.232,122.232,0,0,0,.589,125.642v0a.8.8,0,0,1,.151-.623m.473,3.36A97.01,97.01,0,0,1,5.779,140.4L4,140.55Zm24.5,43.3c-8.326-4-13.522-7.968-16.784-12.818-2.69-4-4.142-8.638-4.878-15.731-.036-.34-.07-.687-.1-1.038l.4-.032L6,141.919l.171-.013.4-.034.115-.009.068-.005h0l.509-.043.041,0,.57-.047,1.02-.084.565-.047.738-.061.059-.005q.065.715.135,1.4c.536,5.066,1.44,8.839,3.732,12.273,2.6,3.9,7.022,7.212,14.281,10.705Z" transform="translate(0 -100.717)" fill="#399a00"/><path d="M121.206,54.953c-3.989-5.852-11.652-10-22.777-12.323-4.788-1.008-7.741-2.888-9.026-5.749-2.42-5.388,1.229-13.928,2.7-16.5l.38-.662-2.1-1.2c.266-.293.535-.562.788-.8,3.619-3.5,8.161-5.861,12.546-8.152a.493.493,0,0,0,.207-.659.487.487,0,0,0-.658-.207c-4.454,2.321-9.055,4.72-12.773,8.31-.311.3-.646.639-.975,1.015l-.369-.21-.2-.114a26.555,26.555,0,0,1,2.78-2.975A54.251,54.251,0,0,1,106.914,4.634a.49.49,0,1,0-.4-.894A54.963,54.963,0,0,0,91.054,14.015a28.935,28.935,0,0,0-2.528,2.654l-.013.015.013-.015c.11-.14.223-.283.337-.423,2.311-2.881,4.916-5.575,7.434-8.19,2.212-2.3,4.5-4.672,6.588-7.159a.489.489,0,1,0-.749-.63C100.072,2.727,97.8,5.1,95.6,7.378c-2.046,2.116-4.143,4.292-6.106,6.579,0,0,0,0,0,0h0s0,0,0,0C91.8,9.444,94.3,5.023,96.984.749a.5.5,0,0,0-.156-.678.5.5,0,0,0-.679.158,173.906,173.906,0,0,0-9.08,16.379L86.7,16.4A37.589,37.589,0,0,0,90.169,3.346a.49.49,0,0,0-.454-.531.5.5,0,0,0-.531.454A36.3,36.3,0,0,1,85.845,15.9l-.839-.484-.675-.378-.38.673c-.815,1.449-7.835,14.454-3.124,24.987,2.577,5.741,7.859,9.48,15.706,11.116,5.012.965,11.731,2.9,15.284,6.633,2.062,2.167,2.064,3.892,2.064,3.955l-.027.72,9.948.968.079-.756c.016-.157.367-3.923-2.676-8.384m-5.863,6.779c-.382-2.145-2.847-8.4-18.508-11.414-7.33-1.53-12.246-4.976-14.61-10.243-3.986-8.913,1.114-19.9,2.7-22.939l.243.14.858.495.338.2.045.025.8.464.013.007.041.023.192.111.192.111v0l.211.121.212.122.513.3.848.489.979.563c-1.8,3.461-4.911,11.612-2.4,17.2,1.5,3.338,4.807,5.5,10.11,6.621,7.324,1.531,17.043,4.783,21.756,11.584a13.316,13.316,0,0,1,2.483,6.705Z" transform="translate(-64.757 0)" fill="#399a00"/></g></g><circle cx="40" cy="40" r="40" transform="translate(1401 1320)" fill="rgba(57,154,0,0.08)"/></g></svg>