<svg width="86" height="83" viewBox="0 0 86 83" fill="none" xmlns="http://www.w3.org/2000/svg">
<g id="local_pizza_FILL0_wght400_GRAD0_opsz24 1">
<path id="Vector" d="M43.0013 76.0833L7.16797 24.2083C12.2444 20.0583 17.8135 16.7153 23.8753 14.1792C29.9371 11.6431 36.3124 10.375 43.0013 10.375C49.6902 10.375 56.0655 11.6286 62.1273 14.1359C68.1892 16.6432 73.7582 20.0007 78.8346 24.2083L43.0013 76.0833ZM43.0013 63.6333L69.1596 25.7646C65.2777 23.1708 61.127 21.1102 56.7076 19.5828C52.2881 18.0554 47.7194 17.2917 43.0013 17.2917C38.2832 17.2917 33.7294 18.0554 29.3398 19.5828C24.9503 21.1102 20.7846 23.1708 16.843 25.7646L43.0013 63.6333ZM34.043 34.5833C35.536 34.5833 36.8051 34.079 37.8503 33.0703C38.8954 32.0616 39.418 30.8368 39.418 29.3958C39.418 27.9549 38.8954 26.73 37.8503 25.7214C36.8051 24.7127 35.536 24.2083 34.043 24.2083C32.5499 24.2083 31.2808 24.7127 30.2357 25.7214C29.1905 26.73 28.668 27.9549 28.668 29.3958C28.668 30.8368 29.1905 32.0616 30.2357 33.0703C31.2808 34.079 32.5499 34.5833 34.043 34.5833ZM43.0013 51.875C44.4944 51.875 45.7635 51.3707 46.8086 50.362C47.8537 49.3533 48.3763 48.1285 48.3763 46.6875C48.3763 45.2465 47.8537 44.0217 46.8086 43.013C45.7635 42.0043 44.4944 41.5 43.0013 41.5C41.5082 41.5 40.2392 42.0043 39.194 43.013C38.1489 44.0217 37.6263 45.2465 37.6263 46.6875C37.6263 48.1285 38.1489 49.3533 39.194 50.362C40.2392 51.3707 41.5082 51.875 43.0013 51.875Z" fill="black"/>
</g>
</svg>
