<svg xmlns="http://www.w3.org/2000/svg" xmlns:xlink="http://www.w3.org/1999/xlink" width="80" height="84" viewBox="0 0 80 84"><defs><clipPath id="a"><rect width="55.952" height="63" fill="#399a00"/></clipPath></defs><g transform="translate(-1400 -1436)"><g transform="translate(1411.73 1436)"><g clip-path="url(#a)"><path d="M238.2,170.605l-.045,0a.678.678,0,0,1-.464-.228.655.655,0,0,1-.166-.482l1.969-31.415a.673.673,0,0,1,.665-.63h.045a.672.672,0,0,1,.63.71l-1.969,31.415a.674.674,0,0,1-.665.63" transform="translate(-200.117 -116.138)" fill="#399a00"/><path d="M99.8,170.611a.684.684,0,0,1-.685-.63l-1.969-31.411a.677.677,0,0,1,.63-.712H97.8a.684.684,0,0,1,.685.63l1.969,31.411a.685.685,0,0,1-.63.712Z" transform="translate(-81.842 -116.145)" fill="#399a00"/><path d="M173.289,170.615a.67.67,0,0,1-.669-.669V138.532a.669.669,0,0,1,1.339,0v31.413a.67.67,0,0,1-.67.669" transform="translate(-145.432 -116.15)" fill="#399a00"/><path d="M9.536,63a.677.677,0,0,1-.676-.676V62.31L4.626,14.664H.676A.677.677,0,0,1,0,13.988V6.655a.677.677,0,0,1,.676-.676H17.5V.676A.677.677,0,0,1,18.174,0h19.6a.677.677,0,0,1,.676.676v5.3H55.275a.677.677,0,0,1,.676.676v7.333a.677.677,0,0,1-.676.676h-3.87L47.153,62.507A.678.678,0,0,1,46.5,63Zm.619-1.34H45.885l4.171-47H5.983ZM28.018,13.311H54.6V7.331H1.351v5.981H5.1l.028,0,.046-.007H27.74ZM18.851,5.979H37.1V1.352H18.851Z" fill="#399a00"/></g></g><circle cx="40" cy="40" r="40" transform="translate(1400 1440)" fill="rgba(57,154,0,0.08)"/></g></svg>