<svg width="100%" height="100%" viewBox="0 0 453 86" version="1.1" xmlns="http://www.w3.org/2000/svg" xmlns:xlink="http://www.w3.org/1999/xlink" xml:space="preserve" xmlns:serif="http://www.serif.com/" style="fill-rule:evenodd;clip-rule:evenodd;stroke-linejoin:round;stroke-miterlimit:2;">
    <g transform="matrix(1,0,0,1,-194.573,-549.625)">
        <g transform="matrix(1,0,0,1,279.651,609.602)">
            <path d="M0,-38.096L0,-35.971C0,-35.05 -0.496,-34.554 -1.416,-34.554L-5.878,-34.554L-15.568,-0.047C-15.844,0.944 -16.474,1.416 -17.497,1.416L-22.07,1.416C-23.109,1.416 -23.731,0.928 -23.983,-0.087L-30.724,-27.665L-37.945,-0.071C-38.206,0.928 -38.835,1.416 -39.866,1.416L-44.124,1.416C-45.156,1.416 -45.785,0.936 -46.061,-0.056L-55.613,-34.554L-59.906,-34.554C-60.827,-34.554 -61.322,-35.042 -61.338,-35.963L-61.37,-38.088C-61.385,-39.009 -60.89,-39.512 -59.969,-39.512L-45.888,-39.512C-44.967,-39.512 -44.471,-39.017 -44.471,-38.096L-44.471,-35.971C-44.471,-35.05 -44.967,-34.554 -45.888,-34.554L-49.586,-34.554L-41.942,-4.477L-34.152,-34.404C-33.892,-35.404 -33.262,-35.892 -32.231,-35.892L-29.169,-35.892C-28.131,-35.892 -27.501,-35.404 -27.249,-34.396L-19.699,-4.181L-11.696,-34.554L-15.191,-34.554C-16.111,-34.554 -16.608,-35.05 -16.608,-35.971L-16.608,-38.096C-16.608,-39.017 -16.111,-39.512 -15.191,-39.512L-1.416,-39.512C-0.496,-39.512 0,-39.017 0,-38.096" style="full:#000;fill-rule:nonzero;"/>
        </g>
        <g transform="matrix(1,0,0,1,287.303,593.702)">
            <path d="M0,-6.297L22.188,-6.297C21.9,-15.481 17.222,-19.284 11.161,-19.284C5.035,-19.284 0.879,-13.865 0,-6.297M11.161,-24.4C22.905,-24.4 28.769,-14.829 27.879,-2.983C27.784,-1.787 27.084,-1.18 25.896,-1.18L21.944,-1.18L21.944,-1.192L-0.112,-1.256C0.459,7.517 4.878,12.987 11.554,12.987C15.718,12.987 19.023,11.35 20.708,7.729C21.054,6.974 21.534,6.612 22.353,6.612L25.398,6.612C26.422,6.612 26.934,7.233 26.603,8.209C24.564,14.113 19.228,18.103 11.554,18.103C0.456,18.103 -6.077,9.209 -6.077,-3.306C-6.077,-15.033 0.219,-24.4 11.16,-24.4L11.161,-24.4Z" style="full:#000;fill-rule:nonzero;"/>
        </g>
        <g transform="matrix(1,0,0,1,353.56,570.956)">
            <path d="M0,19.519C0,9.602 -4.566,3.541 -12.122,3.541C-17.867,3.541 -21.96,7.319 -23.377,13.38L-23.377,26.76C-21.881,32.27 -17.789,35.654 -11.886,35.654C-4.801,35.654 0,29.594 0,19.519M5.903,19.44C5.903,32.428 -0.551,40.85 -11.492,40.85C-17.457,40.85 -21.633,38.244 -24.276,34.421L-25.109,38.52C-25.321,39.551 -25.943,40.062 -26.998,40.062L-27.549,40.062C-28.674,40.062 -29.28,39.456 -29.28,38.331L-29.28,-16.372L-34.082,-16.372C-35.002,-16.372 -35.498,-16.868 -35.498,-17.789L-35.498,-19.914C-35.498,-20.835 -35.002,-21.331 -34.082,-21.331L-25.896,-21.331C-24.77,-21.331 -24.164,-20.725 -24.164,-19.599L-24.164,5.074C-21.241,0.688 -16.773,-1.654 -11.098,-1.654C-0.551,-1.654 5.903,6.69 5.903,19.44" style="full:#000;fill-rule:nonzero;"/>
        </g>
        <g transform="matrix(1,0,0,1,435.497,574.261)">
            <path d="M0,31.798C0.92,31.798 1.416,32.294 1.416,33.215L1.416,35.34C1.416,36.261 0.92,36.757 0,36.757L-15.348,36.757C-16.27,36.757 -16.765,36.261 -16.765,35.34L-16.765,33.215C-16.765,32.294 -16.27,31.798 -15.348,31.798L-10.469,31.798L-10.469,14.403C-10.469,5.352 -14.011,0.393 -20.229,0.393C-25.79,0.393 -29.835,4.562 -31.398,9.775C-31.247,10.997 -31.169,12.28 -31.169,13.616L-31.169,31.798L-26.604,31.798C-25.684,31.798 -25.187,32.294 -25.187,33.215L-25.187,35.34C-25.187,36.261 -25.684,36.757 -26.604,36.757L-41.638,36.757C-42.559,36.757 -43.055,36.261 -43.055,35.34L-43.055,33.215C-43.055,32.294 -42.559,31.798 -41.638,31.798L-36.994,31.798L-36.994,14.403C-36.994,5.352 -40.615,0.393 -46.911,0.393C-52.736,0.393 -56.593,4.722 -58.009,10.074L-58.009,31.798L-53.444,31.798C-52.524,31.798 -52.027,32.294 -52.027,33.215L-52.027,35.34C-52.027,36.261 -52.524,36.757 -53.444,36.757L-68.793,36.757C-69.713,36.757 -70.21,36.261 -70.21,35.34L-70.21,33.215C-70.21,32.294 -69.713,31.798 -68.793,31.798L-63.834,31.798L-63.834,0.786L-68.714,0.786C-69.635,0.786 -70.131,0.291 -70.131,-0.63L-70.131,-2.755C-70.131,-3.676 -69.635,-4.172 -68.714,-4.172L-60.45,-4.172C-59.324,-4.172 -58.718,-3.566 -58.718,-2.441L-58.718,2.101C-56.206,-2.081 -52.207,-4.959 -46.203,-4.959C-39.855,-4.959 -35.369,-1.778 -33.032,3.564C-30.662,-1.394 -26.552,-4.959 -19.758,-4.959C-9.919,-4.959 -4.566,2.44 -4.566,13.616L-4.566,31.798L0,31.798Z" style="full:#000;fill-rule:nonzero;"/>
        </g>
        <g transform="matrix(1,0,0,1,472.175,590.633)">
            <path d="M0,-0.158C0,-9.9 -5.099,-16.114 -12.477,-16.136C-19.854,-16.114 -25.03,-9.9 -25.03,-0.158C-25.03,9.743 -19.854,15.956 -12.477,15.977C-5.099,15.956 0,9.743 0,-0.158M-12.436,21.173L-12.516,21.173C-24.117,21.132 -30.933,12.25 -30.933,-0.237C-30.933,-12.566 -24.196,-21.291 -12.516,-21.331L-12.436,-21.331C-0.835,-21.291 5.981,-12.565 5.981,-0.237C5.981,12.25 -0.835,21.132 -12.436,21.173" style="full:#000;fill-rule:nonzero;"/>
        </g>
        <g transform="matrix(1,0,0,1,494.371,596.693)">
            <path d="M0,-21.409L0,1.496C0,7.163 2.203,9.917 6.06,9.917C7.816,9.917 9.76,9.453 11.641,8.658C12.648,8.233 13.302,8.619 13.302,9.705L13.302,11.909C13.302,12.712 12.995,13.247 12.263,13.569C9.949,14.577 7.281,15.112 4.958,15.112C-1.653,15.112 -5.903,11.098 -5.903,1.889L-5.903,-21.409L-9.996,-21.409C-10.917,-21.409 -11.413,-21.905 -11.413,-22.826L-11.413,-25.187C-11.413,-26.108 -10.917,-26.603 -9.996,-26.603L-5.903,-26.603L-5.903,-35.104C-5.903,-36.026 -5.407,-36.521 -4.487,-36.521L-1.417,-36.521C-0.496,-36.521 0,-36.026 0,-35.104L0,-26.603L12.2,-26.603C13.12,-26.603 13.616,-26.108 13.616,-25.187L13.616,-22.826C13.616,-21.905 13.12,-21.409 12.2,-21.409L0,-21.409Z" style="full:#000;fill-rule:nonzero;"/>
        </g>
        <g transform="matrix(1,0,0,1,517.037,606.453)">
            <path d="M0,-50.532C0,-53.051 1.889,-55.097 4.408,-55.097C6.768,-55.097 8.737,-53.051 8.737,-50.532C8.737,-47.856 6.768,-45.731 4.408,-45.731C1.889,-45.731 0,-47.856 0,-50.532M13.853,1.023L13.853,3.148C13.853,4.069 13.357,4.565 12.436,4.565L-2.912,4.565C-3.833,4.565 -4.329,4.069 -4.329,3.148L-4.329,1.023C-4.329,0.102 -3.833,-0.394 -2.912,-0.394L2.046,-0.394L2.046,-31.406L-2.834,-31.406C-3.754,-31.406 -4.25,-31.901 -4.25,-32.822L-4.25,-34.947C-4.25,-35.868 -3.754,-36.364 -2.834,-36.364L6.139,-36.364C7.265,-36.364 7.871,-35.758 7.871,-34.633L7.871,-0.394L12.436,-0.394C13.357,-0.394 13.853,0.102 13.853,1.023" style="full:#000;fill-rule:nonzero;"/>
        </g>
        <g transform="matrix(1,0,0,1,566.858,590.633)">
            <path d="M0,-0.158C0,-9.9 -5.098,-16.114 -12.475,-16.136C-19.853,-16.114 -25.029,-9.9 -25.029,-0.158C-25.029,9.743 -19.853,15.956 -12.475,15.977C-5.098,15.956 0,9.743 0,-0.158M-12.435,21.173L-12.514,21.173C-24.115,21.132 -30.932,12.25 -30.932,-0.237C-30.932,-12.566 -24.195,-21.291 -12.514,-21.331L-12.435,-21.331C-0.834,-21.291 5.982,-12.565 5.982,-0.237C5.982,12.25 -0.834,21.132 -12.435,21.173" style="full:#000;fill-rule:nonzero;"/>
        </g>
        <g transform="matrix(1,0,0,1,623.609,572.844)">
            <path d="M0,34.632L0,36.757C0,37.678 -0.496,38.174 -1.417,38.174L-16.686,38.174C-17.608,38.174 -18.103,37.678 -18.103,36.757L-18.103,34.632C-18.103,33.711 -17.608,33.215 -16.686,33.215L-11.885,33.215L-11.885,15.82C-11.885,6.375 -15.9,1.653 -21.882,1.653C-27.233,1.653 -31.327,5.745 -32.743,11.491L-32.743,33.215L-28.257,33.215C-27.336,33.215 -26.84,33.711 -26.84,34.632L-26.84,36.757C-26.84,37.678 -27.336,38.174 -28.257,38.174L-43.526,38.174C-44.448,38.174 -44.943,37.678 -44.943,36.757L-44.943,34.632C-44.943,33.711 -44.448,33.215 -43.526,33.215L-38.568,33.215L-38.568,2.203L-43.449,2.203C-44.369,2.203 -44.864,1.708 -44.864,0.787L-44.864,-1.338C-44.864,-2.259 -44.369,-2.755 -43.449,-2.755L-35.341,-2.755C-34.216,-2.755 -33.61,-2.149 -33.61,-1.024L-33.61,3.569C-30.818,-1.017 -26.561,-3.542 -20.858,-3.542C-11.885,-3.542 -5.982,3.227 -5.982,14.561L-5.982,33.215L-1.417,33.215C-0.496,33.215 0,33.711 0,34.632" style="full:#000;fill-rule:nonzero;"/>
        </g>
        <g transform="matrix(1,0,0,1,201.523,592.496)">
            <path d="M0,0.12C1.85,0.6 3.78,2.91 3.78,8.6L3.78,26.61C3.78,33.34 6.02,35.73 8.81,36.29C9.78,36.49 10.3,37 10.3,38.08L10.3,40.93C10.3,42.06 9.73,42.71 8.69,42.63C3.04,42.17 -2.12,39.04 -2.2,27.86L-2.29,8.79C-2.29,4.62 -3.65,3.43 -5.44,3.12C-6.42,2.94 -6.95,2.43 -6.95,1.34L-6.95,-1.19C-6.95,-2.29 -6.43,-2.8 -5.45,-2.97C-3.66,-3.31 -2.29,-4.57 -2.29,-9.12L-2.2,-28.58C-2.12,-37.63 1.78,-42.18 8.69,-42.53C9.73,-42.59 10.3,-41.93 10.3,-40.81L10.3,-38.07C10.3,-36.96 9.75,-36.46 8.74,-36.32C5.09,-35.83 3.78,-32.84 3.78,-27.23L3.7,-8.93C3.7,-3.06 1.85,-0.46 0,0.12" style="full:#000;fill-rule:nonzero;"/>
        </g>
        <g transform="matrix(1,0,0,1,630.066,551.774)">
            <path d="M0,81.562L0,78.721C0,77.797 0.581,77.18 1.408,77.026C4.216,76.496 6.425,74.117 6.425,67.328L6.513,49.319C6.513,43.637 8.361,41.326 10.298,40.844C8.361,40.266 6.513,37.666 6.513,31.792L6.425,13.493C6.425,7.879 5.123,4.893 1.532,4.402C0.643,4.287 0,3.651 0,2.679L0,-0.037C0,-1.068 0.686,-1.858 1.637,-1.809C8.538,-1.434 12.41,3.112 12.41,12.145L12.498,31.599C12.498,36.212 13.959,37.445 15.799,37.762C16.643,37.907 17.25,38.523 17.25,39.476L17.25,42.115C17.25,43.069 16.643,43.695 15.79,43.83C13.95,44.128 12.498,45.294 12.498,49.512L12.41,68.58C12.331,79.713 7.296,82.862 1.681,83.343C0.713,83.42 0,82.621 0,81.562" style="full:#000;fill-rule:nonzero;"/>
        </g>
        <g transform="matrix(1,0,0,1,319.244,627.576)">
            <path d="M0,3.162L4.998,3.162L2.482,-2.618L0,3.162ZM6.885,7.531L5.627,4.641L-0.646,4.641L-1.887,7.531L-3.604,7.531L1.683,-4.369L3.383,-4.369L8.653,7.531L6.885,7.531Z" style="full:#000;fill-rule:nonzero;"/>
        </g>
        <g transform="matrix(1,0,0,1,336.839,628.392)">
            <path d="M0,1.531C1.02,1.531 1.802,1.307 2.346,0.859C2.89,0.412 3.162,-0.248 3.162,-1.121C3.162,-1.971 2.89,-2.615 2.346,-3.051C1.802,-3.488 1.02,-3.705 0,-3.705L-3.026,-3.705L-3.026,1.531L0,1.531ZM3.026,6.716L0.663,2.975C0.391,2.999 0.17,3.01 0,3.01L-3.026,3.01L-3.026,6.716L-4.658,6.716L-4.658,-5.185L0,-5.185C1.507,-5.185 2.672,-4.836 3.494,-4.139C4.315,-3.442 4.726,-2.453 4.726,-1.172C4.726,-0.209 4.502,0.601 4.055,1.259C3.607,1.916 2.964,2.392 2.125,2.686L4.896,6.716L3.026,6.716Z" style="full:#000;fill-rule:nonzero;"/>
        </g>
        <g transform="matrix(1,0,0,1,345.492,635.107)">
            <path d="M0,-11.9L9.299,-11.9L9.299,-10.404L5.457,-10.404L5.457,0L3.825,0L3.825,-10.404L0,-10.404L0,-11.9Z" style="full:#000;fill-rule:nonzero;"/>
        </g>
        <g transform="matrix(1,0,0,1,0,69.314)">
            <rect x="359.211" y="553.893" width="1.632" height="11.9" style="full:#000;"/>
        </g>
        <g transform="matrix(1,0,0,1,375.021,629.04)">
            <path d="M0,0.253L1.445,0.253L1.445,4.622C0.845,5.099 0.142,5.479 -0.663,5.762C-1.468,6.045 -2.267,6.187 -3.06,6.187C-4.204,6.187 -5.253,5.917 -6.205,5.379C-7.156,4.841 -7.907,4.104 -8.457,3.169C-9.007,2.233 -9.281,1.211 -9.281,0.101C-9.281,-1.01 -9.004,-2.027 -8.449,-2.951C-7.894,-3.875 -7.134,-4.602 -6.171,-5.136C-5.208,-5.668 -4.143,-5.934 -2.975,-5.934C-2.147,-5.934 -1.34,-5.787 -0.552,-5.492C0.235,-5.198 0.918,-4.796 1.496,-4.285L0.562,-3.096C0.085,-3.538 -0.462,-3.88 -1.079,-4.124C-1.697,-4.368 -2.329,-4.489 -2.975,-4.489C-3.825,-4.489 -4.606,-4.285 -5.32,-3.878C-6.035,-3.47 -6.599,-2.914 -7.013,-2.212C-7.426,-1.509 -7.633,-0.738 -7.633,0.101C-7.633,0.94 -7.423,1.713 -7.004,2.421C-6.585,3.129 -6.018,3.691 -5.304,4.104C-4.59,4.518 -3.808,4.725 -2.958,4.725C-2.459,4.725 -1.952,4.643 -1.437,4.478C-0.921,4.314 -0.441,4.084 0,3.789L0,0.253Z" style="full:#000;fill-rule:nonzero;"/>
        </g>
        <g transform="matrix(1,0,0,1,0,69.314)">
            <rect x="382.11" y="553.893" width="1.632" height="11.9" style="full:#000;"/>
        </g>
        <g transform="matrix(1,0,0,1,391.647,627.576)">
            <path d="M0,3.162L4.998,3.162L2.481,-2.618L0,3.162ZM6.885,7.531L5.627,4.641L-0.646,4.641L-1.888,7.531L-3.604,7.531L1.683,-4.369L3.383,-4.369L8.652,7.531L6.885,7.531Z" style="full:#000;fill-rule:nonzero;"/>
        </g>
        <g transform="matrix(1,0,0,1,413.049,635.107)">
            <path d="M0,-11.9L1.615,-11.9L1.615,0L-0.034,0L-6.834,-9.213L-6.834,0L-8.466,0L-8.466,-11.9L-6.817,-11.9L0,-2.669L0,-11.9Z" style="full:#000;fill-rule:nonzero;"/>
        </g>
        <g transform="matrix(1,0,0,1,0,69.314)">
            <rect x="420.631" y="553.893" width="1.631" height="11.9" style="full:#000;"/>
        </g>
        <g transform="matrix(1,0,0,1,442.348,625.264)">
            <path d="M0,7.787C0.675,7.401 1.207,6.869 1.599,6.188C1.989,5.509 2.185,4.75 2.185,3.911C2.185,3.06 1.986,2.296 1.59,1.616C1.193,0.935 0.652,0.4 -0.033,0.009C-0.72,-0.382 -1.481,-0.577 -2.32,-0.577L-5.499,-0.577L-5.499,8.365L-2.252,8.365C-1.425,8.365 -0.674,8.172 0,7.787M0.851,-1.283C1.785,-0.767 2.52,-0.056 3.052,0.85C3.585,1.758 3.851,2.771 3.851,3.893C3.851,5.016 3.582,6.03 3.043,6.936C2.505,7.844 1.766,8.555 0.825,9.07C-0.116,9.586 -1.17,9.844 -2.337,9.844L-7.131,9.844L-7.131,-2.057L-2.286,-2.057C-1.13,-2.057 -0.085,-1.798 0.851,-1.283" style="full:#000;fill-rule:nonzero;"/>
        </g>
        <g transform="matrix(1,0,0,1,0,69.314)">
            <rect x="451.077" y="553.893" width="1.632" height="11.9" style="full:#000;"/>
        </g>
        <g transform="matrix(1,0,0,1,466.887,629.04)">
            <path d="M0,0.253L1.445,0.253L1.445,4.622C0.845,5.099 0.142,5.479 -0.663,5.762C-1.468,6.045 -2.267,6.187 -3.06,6.187C-4.204,6.187 -5.253,5.917 -6.205,5.379C-7.156,4.841 -7.907,4.104 -8.457,3.169C-9.007,2.233 -9.281,1.211 -9.281,0.101C-9.281,-1.01 -9.004,-2.027 -8.449,-2.951C-7.894,-3.875 -7.134,-4.602 -6.171,-5.136C-5.208,-5.668 -4.143,-5.934 -2.975,-5.934C-2.147,-5.934 -1.34,-5.787 -0.552,-5.492C0.235,-5.198 0.918,-4.796 1.496,-4.285L0.562,-3.096C0.085,-3.538 -0.462,-3.88 -1.079,-4.124C-1.697,-4.368 -2.329,-4.489 -2.975,-4.489C-3.825,-4.489 -4.606,-4.285 -5.32,-3.878C-6.035,-3.47 -6.599,-2.914 -7.013,-2.212C-7.426,-1.509 -7.633,-0.738 -7.633,0.101C-7.633,0.94 -7.423,1.713 -7.004,2.421C-6.585,3.129 -6.018,3.691 -5.304,4.104C-4.59,4.518 -3.808,4.725 -2.958,4.725C-2.459,4.725 -1.952,4.643 -1.437,4.478C-0.921,4.314 -0.441,4.084 0,3.789L0,0.253Z" style="full:#000;fill-rule:nonzero;"/>
        </g>
        <g transform="matrix(1,0,0,1,0,69.314)">
            <rect x="473.977" y="553.893" width="1.632" height="11.9" style="full:#000;"/>
        </g>
        <g transform="matrix(1,0,0,1,480.027,635.107)">
            <path d="M0,-11.9L9.299,-11.9L9.299,-10.404L5.457,-10.404L5.457,0L3.825,0L3.825,-10.404L0,-10.404L0,-11.9Z" style="full:#000;fill-rule:nonzero;"/>
        </g>
        <g transform="matrix(1,0,0,1,494.563,627.576)">
            <path d="M0,3.162L4.998,3.162L2.481,-2.618L0,3.162ZM6.885,7.531L5.627,4.641L-0.646,4.641L-1.888,7.531L-3.604,7.531L1.683,-4.369L3.383,-4.369L8.652,7.531L6.885,7.531Z" style="full:#000;fill-rule:nonzero;"/>
        </g>
        <g transform="matrix(1,0,0,1,507.5,635.107)">
            <path d="M0,-11.9L1.632,-11.9L1.632,-1.478L6.834,-1.478L6.834,0L0,0L0,-11.9Z" style="full:#000;fill-rule:nonzero;"/>
        </g>
        <g transform="matrix(1,0,0,1,0,69.314)">
            <rect x="518.958" y="553.893" width="1.632" height="11.9" style="full:#000;"/>
        </g>
    </g>
</svg>
